<mxfile host="app.diagrams.net" agent="Mozilla/5.0 (Windows NT 10.0; Win64; x64) AppleWebKit/537.36 (KHTML, like Gecko) Chrome/139.0.0.0 Safari/537.36" version="28.1.1">
  <diagram name="페이지-1" id="hV7F0KRpEXHVxbrO4tTi">
    <mxGraphModel dx="2009" dy="897" grid="1" gridSize="10" guides="1" tooltips="1" connect="1" arrows="1" fold="1" page="1" pageScale="1" pageWidth="827" pageHeight="1169" math="0" shadow="0">
      <root>
        <mxCell id="0" />
        <mxCell id="1" parent="0" />
        <mxCell id="pclMln9PGww5dzaaVnz9-1" value="users" style="rounded=0;whiteSpace=wrap;html=1;labelBackgroundColor=none;fillColor=#FFE45E;strokeColor=#FF6392;fontColor=#5AA9E6;" parent="1" vertex="1">
          <mxGeometry x="180" y="70" width="120" height="60" as="geometry" />
        </mxCell>
        <mxCell id="pclMln9PGww5dzaaVnz9-2" value="posts" style="rounded=0;whiteSpace=wrap;html=1;labelBackgroundColor=none;fillColor=#FFE45E;strokeColor=#FF6392;fontColor=#5AA9E6;" parent="1" vertex="1">
          <mxGeometry x="338" y="313" width="120" height="60" as="geometry" />
        </mxCell>
        <mxCell id="pclMln9PGww5dzaaVnz9-3" value="categories" style="rounded=0;whiteSpace=wrap;html=1;labelBackgroundColor=none;fillColor=#FFE45E;strokeColor=#FF6392;fontColor=#5AA9E6;" parent="1" vertex="1">
          <mxGeometry x="30" y="495" width="120" height="60" as="geometry" />
        </mxCell>
        <mxCell id="pclMln9PGww5dzaaVnz9-4" value="views" style="rounded=0;whiteSpace=wrap;html=1;labelBackgroundColor=none;fillColor=#FFE45E;strokeColor=#FF6392;fontColor=#5AA9E6;" parent="1" vertex="1">
          <mxGeometry x="30" y="640" width="120" height="60" as="geometry" />
        </mxCell>
        <mxCell id="pclMln9PGww5dzaaVnz9-5" value="hashtags" style="rounded=0;whiteSpace=wrap;html=1;labelBackgroundColor=none;fillColor=#FFE45E;strokeColor=#FF6392;fontColor=#5AA9E6;" parent="1" vertex="1">
          <mxGeometry x="30" y="800" width="120" height="60" as="geometry" />
        </mxCell>
        <mxCell id="pclMln9PGww5dzaaVnz9-6" value="likes" style="rounded=0;whiteSpace=wrap;html=1;labelBackgroundColor=none;fillColor=#FFE45E;strokeColor=#FF6392;fontColor=#5AA9E6;" parent="1" vertex="1">
          <mxGeometry x="30" y="940" width="120" height="60" as="geometry" />
        </mxCell>
        <mxCell id="pclMln9PGww5dzaaVnz9-7" value="reports" style="rounded=0;whiteSpace=wrap;html=1;labelBackgroundColor=none;fillColor=#FFE45E;strokeColor=#FF6392;fontColor=#5AA9E6;" parent="1" vertex="1">
          <mxGeometry x="20" y="1150" width="120" height="60" as="geometry" />
        </mxCell>
        <mxCell id="pclMln9PGww5dzaaVnz9-8" value="followers" style="rounded=0;whiteSpace=wrap;html=1;labelBackgroundColor=none;fillColor=#FFE45E;strokeColor=#FF6392;fontColor=#5AA9E6;" parent="1" vertex="1">
          <mxGeometry x="20" y="1330" width="120" height="60" as="geometry" />
        </mxCell>
        <mxCell id="pclMln9PGww5dzaaVnz9-9" value="email" style="ellipse;whiteSpace=wrap;html=1;labelBackgroundColor=none;fillColor=#FFE45E;strokeColor=#FF6392;fontColor=#5AA9E6;" parent="1" vertex="1">
          <mxGeometry x="340" y="60" width="120" height="80" as="geometry" />
        </mxCell>
        <mxCell id="pclMln9PGww5dzaaVnz9-10" value="password" style="ellipse;whiteSpace=wrap;html=1;labelBackgroundColor=none;fillColor=#FFE45E;strokeColor=#FF6392;fontColor=#5AA9E6;" parent="1" vertex="1">
          <mxGeometry x="250" y="150" width="120" height="80" as="geometry" />
        </mxCell>
        <mxCell id="pclMln9PGww5dzaaVnz9-11" value="name" style="ellipse;whiteSpace=wrap;html=1;labelBackgroundColor=none;fillColor=#FFE45E;strokeColor=#FF6392;fontColor=#5AA9E6;" parent="1" vertex="1">
          <mxGeometry x="90" y="150" width="120" height="80" as="geometry" />
        </mxCell>
        <mxCell id="pclMln9PGww5dzaaVnz9-12" value="age" style="ellipse;whiteSpace=wrap;html=1;labelBackgroundColor=none;fillColor=#FFE45E;strokeColor=#FF6392;fontColor=#5AA9E6;" parent="1" vertex="1">
          <mxGeometry x="20" y="60" width="120" height="80" as="geometry" />
        </mxCell>
        <mxCell id="pclMln9PGww5dzaaVnz9-13" value="id" style="ellipse;whiteSpace=wrap;html=1;align=center;fontStyle=4;labelBackgroundColor=none;fillColor=#FFE45E;strokeColor=#FF6392;fontColor=#5AA9E6;" parent="1" vertex="1">
          <mxGeometry x="190" y="10" width="100" height="40" as="geometry" />
        </mxCell>
        <mxCell id="pclMln9PGww5dzaaVnz9-14" value="" style="endArrow=none;html=1;rounded=0;labelBackgroundColor=none;strokeColor=#FF6392;fontColor=default;" parent="1" target="pclMln9PGww5dzaaVnz9-11" edge="1">
          <mxGeometry relative="1" as="geometry">
            <mxPoint x="210" y="130" as="sourcePoint" />
            <mxPoint x="290" y="420" as="targetPoint" />
          </mxGeometry>
        </mxCell>
        <mxCell id="pclMln9PGww5dzaaVnz9-15" value="" style="endArrow=none;html=1;rounded=0;labelBackgroundColor=none;strokeColor=#FF6392;fontColor=default;" parent="1" source="pclMln9PGww5dzaaVnz9-10" target="pclMln9PGww5dzaaVnz9-1" edge="1">
          <mxGeometry relative="1" as="geometry">
            <mxPoint x="267" y="140" as="sourcePoint" />
            <mxPoint x="240" y="167" as="targetPoint" />
          </mxGeometry>
        </mxCell>
        <mxCell id="pclMln9PGww5dzaaVnz9-16" value="" style="endArrow=none;html=1;rounded=0;entryX=1;entryY=0.5;entryDx=0;entryDy=0;labelBackgroundColor=none;strokeColor=#FF6392;fontColor=default;" parent="1" source="pclMln9PGww5dzaaVnz9-9" target="pclMln9PGww5dzaaVnz9-1" edge="1">
          <mxGeometry relative="1" as="geometry">
            <mxPoint x="292" y="165" as="sourcePoint" />
            <mxPoint x="273" y="140" as="targetPoint" />
          </mxGeometry>
        </mxCell>
        <mxCell id="pclMln9PGww5dzaaVnz9-17" value="" style="endArrow=none;html=1;rounded=0;entryX=1;entryY=0.5;entryDx=0;entryDy=0;labelBackgroundColor=none;strokeColor=#FF6392;fontColor=default;" parent="1" edge="1">
          <mxGeometry relative="1" as="geometry">
            <mxPoint x="180" y="99.63" as="sourcePoint" />
            <mxPoint x="140" y="99.63" as="targetPoint" />
          </mxGeometry>
        </mxCell>
        <mxCell id="pclMln9PGww5dzaaVnz9-19" value="" style="endArrow=none;html=1;rounded=0;entryX=0.5;entryY=1;entryDx=0;entryDy=0;labelBackgroundColor=none;strokeColor=#FF6392;fontColor=default;" parent="1" source="pclMln9PGww5dzaaVnz9-1" target="pclMln9PGww5dzaaVnz9-13" edge="1">
          <mxGeometry relative="1" as="geometry">
            <mxPoint x="190" y="109.63" as="sourcePoint" />
            <mxPoint x="150" y="109.63" as="targetPoint" />
          </mxGeometry>
        </mxCell>
        <mxCell id="pclMln9PGww5dzaaVnz9-20" value="users" style="shape=table;startSize=30;container=1;collapsible=1;childLayout=tableLayout;fixedRows=1;rowLines=0;fontStyle=1;align=center;resizeLast=1;html=1;labelBackgroundColor=none;fillColor=#FFE45E;strokeColor=#FF6392;fontColor=#5AA9E6;" parent="1" vertex="1">
          <mxGeometry x="1320" y="70" width="180" height="180" as="geometry">
            <mxRectangle x="620" y="50" width="70" height="30" as="alternateBounds" />
          </mxGeometry>
        </mxCell>
        <mxCell id="pclMln9PGww5dzaaVnz9-21" value="" style="shape=tableRow;horizontal=0;startSize=0;swimlaneHead=0;swimlaneBody=0;fillColor=none;collapsible=0;dropTarget=0;points=[[0,0.5],[1,0.5]];portConstraint=eastwest;top=0;left=0;right=0;bottom=1;labelBackgroundColor=none;strokeColor=#FF6392;fontColor=#5AA9E6;" parent="pclMln9PGww5dzaaVnz9-20" vertex="1">
          <mxGeometry y="30" width="180" height="30" as="geometry" />
        </mxCell>
        <mxCell id="pclMln9PGww5dzaaVnz9-22" value="PK" style="shape=partialRectangle;connectable=0;fillColor=none;top=0;left=0;bottom=0;right=0;fontStyle=1;overflow=hidden;whiteSpace=wrap;html=1;labelBackgroundColor=none;strokeColor=#FF6392;fontColor=#5AA9E6;" parent="pclMln9PGww5dzaaVnz9-21" vertex="1">
          <mxGeometry width="30" height="30" as="geometry">
            <mxRectangle width="30" height="30" as="alternateBounds" />
          </mxGeometry>
        </mxCell>
        <mxCell id="pclMln9PGww5dzaaVnz9-23" value="id" style="shape=partialRectangle;connectable=0;fillColor=none;top=0;left=0;bottom=0;right=0;align=left;spacingLeft=6;fontStyle=5;overflow=hidden;whiteSpace=wrap;html=1;labelBackgroundColor=none;strokeColor=#FF6392;fontColor=#5AA9E6;" parent="pclMln9PGww5dzaaVnz9-21" vertex="1">
          <mxGeometry x="30" width="150" height="30" as="geometry">
            <mxRectangle width="150" height="30" as="alternateBounds" />
          </mxGeometry>
        </mxCell>
        <mxCell id="pclMln9PGww5dzaaVnz9-24" value="" style="shape=tableRow;horizontal=0;startSize=0;swimlaneHead=0;swimlaneBody=0;fillColor=none;collapsible=0;dropTarget=0;points=[[0,0.5],[1,0.5]];portConstraint=eastwest;top=0;left=0;right=0;bottom=0;labelBackgroundColor=none;strokeColor=#FF6392;fontColor=#5AA9E6;" parent="pclMln9PGww5dzaaVnz9-20" vertex="1">
          <mxGeometry y="60" width="180" height="30" as="geometry" />
        </mxCell>
        <mxCell id="pclMln9PGww5dzaaVnz9-25" value="" style="shape=partialRectangle;connectable=0;fillColor=none;top=0;left=0;bottom=0;right=0;editable=1;overflow=hidden;whiteSpace=wrap;html=1;labelBackgroundColor=none;strokeColor=#FF6392;fontColor=#5AA9E6;" parent="pclMln9PGww5dzaaVnz9-24" vertex="1">
          <mxGeometry width="30" height="30" as="geometry">
            <mxRectangle width="30" height="30" as="alternateBounds" />
          </mxGeometry>
        </mxCell>
        <mxCell id="pclMln9PGww5dzaaVnz9-26" value="name" style="shape=partialRectangle;connectable=0;fillColor=none;top=0;left=0;bottom=0;right=0;align=left;spacingLeft=6;overflow=hidden;whiteSpace=wrap;html=1;labelBackgroundColor=none;strokeColor=#FF6392;fontColor=#5AA9E6;" parent="pclMln9PGww5dzaaVnz9-24" vertex="1">
          <mxGeometry x="30" width="150" height="30" as="geometry">
            <mxRectangle width="150" height="30" as="alternateBounds" />
          </mxGeometry>
        </mxCell>
        <mxCell id="pclMln9PGww5dzaaVnz9-27" value="" style="shape=tableRow;horizontal=0;startSize=0;swimlaneHead=0;swimlaneBody=0;fillColor=none;collapsible=0;dropTarget=0;points=[[0,0.5],[1,0.5]];portConstraint=eastwest;top=0;left=0;right=0;bottom=0;labelBackgroundColor=none;strokeColor=#FF6392;fontColor=#5AA9E6;" parent="pclMln9PGww5dzaaVnz9-20" vertex="1">
          <mxGeometry y="90" width="180" height="30" as="geometry" />
        </mxCell>
        <mxCell id="pclMln9PGww5dzaaVnz9-28" value="" style="shape=partialRectangle;connectable=0;fillColor=none;top=0;left=0;bottom=0;right=0;editable=1;overflow=hidden;whiteSpace=wrap;html=1;labelBackgroundColor=none;strokeColor=#FF6392;fontColor=#5AA9E6;" parent="pclMln9PGww5dzaaVnz9-27" vertex="1">
          <mxGeometry width="30" height="30" as="geometry">
            <mxRectangle width="30" height="30" as="alternateBounds" />
          </mxGeometry>
        </mxCell>
        <mxCell id="pclMln9PGww5dzaaVnz9-29" value="email" style="shape=partialRectangle;connectable=0;fillColor=none;top=0;left=0;bottom=0;right=0;align=left;spacingLeft=6;overflow=hidden;whiteSpace=wrap;html=1;labelBackgroundColor=none;strokeColor=#FF6392;fontColor=#5AA9E6;" parent="pclMln9PGww5dzaaVnz9-27" vertex="1">
          <mxGeometry x="30" width="150" height="30" as="geometry">
            <mxRectangle width="150" height="30" as="alternateBounds" />
          </mxGeometry>
        </mxCell>
        <mxCell id="pclMln9PGww5dzaaVnz9-30" value="" style="shape=tableRow;horizontal=0;startSize=0;swimlaneHead=0;swimlaneBody=0;fillColor=none;collapsible=0;dropTarget=0;points=[[0,0.5],[1,0.5]];portConstraint=eastwest;top=0;left=0;right=0;bottom=0;labelBackgroundColor=none;strokeColor=#FF6392;fontColor=#5AA9E6;" parent="pclMln9PGww5dzaaVnz9-20" vertex="1">
          <mxGeometry y="120" width="180" height="30" as="geometry" />
        </mxCell>
        <mxCell id="pclMln9PGww5dzaaVnz9-31" value="" style="shape=partialRectangle;connectable=0;fillColor=none;top=0;left=0;bottom=0;right=0;editable=1;overflow=hidden;whiteSpace=wrap;html=1;labelBackgroundColor=none;strokeColor=#FF6392;fontColor=#5AA9E6;" parent="pclMln9PGww5dzaaVnz9-30" vertex="1">
          <mxGeometry width="30" height="30" as="geometry">
            <mxRectangle width="30" height="30" as="alternateBounds" />
          </mxGeometry>
        </mxCell>
        <mxCell id="pclMln9PGww5dzaaVnz9-32" value="age" style="shape=partialRectangle;connectable=0;fillColor=none;top=0;left=0;bottom=0;right=0;align=left;spacingLeft=6;overflow=hidden;whiteSpace=wrap;html=1;labelBackgroundColor=none;strokeColor=#FF6392;fontColor=#5AA9E6;" parent="pclMln9PGww5dzaaVnz9-30" vertex="1">
          <mxGeometry x="30" width="150" height="30" as="geometry">
            <mxRectangle width="150" height="30" as="alternateBounds" />
          </mxGeometry>
        </mxCell>
        <mxCell id="pclMln9PGww5dzaaVnz9-33" value="" style="shape=tableRow;horizontal=0;startSize=0;swimlaneHead=0;swimlaneBody=0;fillColor=none;collapsible=0;dropTarget=0;points=[[0,0.5],[1,0.5]];portConstraint=eastwest;top=0;left=0;right=0;bottom=0;labelBackgroundColor=none;strokeColor=#FF6392;fontColor=#5AA9E6;" parent="pclMln9PGww5dzaaVnz9-20" vertex="1">
          <mxGeometry y="150" width="180" height="30" as="geometry" />
        </mxCell>
        <mxCell id="pclMln9PGww5dzaaVnz9-34" value="" style="shape=partialRectangle;connectable=0;fillColor=none;top=0;left=0;bottom=0;right=0;editable=1;overflow=hidden;whiteSpace=wrap;html=1;labelBackgroundColor=none;strokeColor=#FF6392;fontColor=#5AA9E6;" parent="pclMln9PGww5dzaaVnz9-33" vertex="1">
          <mxGeometry width="30" height="30" as="geometry">
            <mxRectangle width="30" height="30" as="alternateBounds" />
          </mxGeometry>
        </mxCell>
        <mxCell id="pclMln9PGww5dzaaVnz9-35" value="password" style="shape=partialRectangle;connectable=0;fillColor=none;top=0;left=0;bottom=0;right=0;align=left;spacingLeft=6;overflow=hidden;whiteSpace=wrap;html=1;labelBackgroundColor=none;strokeColor=#FF6392;fontColor=#5AA9E6;" parent="pclMln9PGww5dzaaVnz9-33" vertex="1">
          <mxGeometry x="30" width="150" height="30" as="geometry">
            <mxRectangle width="150" height="30" as="alternateBounds" />
          </mxGeometry>
        </mxCell>
        <mxCell id="pclMln9PGww5dzaaVnz9-36" value="createat" style="ellipse;whiteSpace=wrap;html=1;align=center;labelBackgroundColor=none;fillColor=#FFE45E;strokeColor=#FF6392;fontColor=#5AA9E6;" parent="1" vertex="1">
          <mxGeometry x="475" y="350" width="100" height="40" as="geometry" />
        </mxCell>
        <mxCell id="pclMln9PGww5dzaaVnz9-37" value="cartegory" style="ellipse;whiteSpace=wrap;html=1;align=center;labelBackgroundColor=none;fillColor=#FFE45E;strokeColor=#FF6392;fontColor=#5AA9E6;" parent="1" vertex="1">
          <mxGeometry x="475" y="300" width="100" height="40" as="geometry" />
        </mxCell>
        <mxCell id="pclMln9PGww5dzaaVnz9-38" value="view" style="ellipse;whiteSpace=wrap;html=1;align=center;labelBackgroundColor=none;fillColor=#FFE45E;strokeColor=#FF6392;fontColor=#5AA9E6;" parent="1" vertex="1">
          <mxGeometry x="395" y="390" width="100" height="40" as="geometry" />
        </mxCell>
        <mxCell id="pclMln9PGww5dzaaVnz9-39" value="users_id(FK)" style="ellipse;whiteSpace=wrap;html=1;align=center;labelBackgroundColor=none;fillColor=#FFE45E;strokeColor=#FF6392;fontColor=#5AA9E6;" parent="1" vertex="1">
          <mxGeometry x="285" y="390" width="100" height="40" as="geometry" />
        </mxCell>
        <mxCell id="pclMln9PGww5dzaaVnz9-40" value="categories_id(FK)" style="ellipse;whiteSpace=wrap;html=1;align=center;labelBackgroundColor=none;fillColor=#FFE45E;strokeColor=#FF6392;fontColor=#5AA9E6;" parent="1" vertex="1">
          <mxGeometry x="225" y="350" width="100" height="40" as="geometry" />
        </mxCell>
        <mxCell id="pclMln9PGww5dzaaVnz9-42" value="contents" style="ellipse;whiteSpace=wrap;html=1;align=center;labelBackgroundColor=none;fillColor=#FFE45E;strokeColor=#FF6392;fontColor=#5AA9E6;" parent="1" vertex="1">
          <mxGeometry x="405" y="260" width="100" height="40" as="geometry" />
        </mxCell>
        <mxCell id="pclMln9PGww5dzaaVnz9-43" value="title" style="ellipse;whiteSpace=wrap;html=1;align=center;labelBackgroundColor=none;fillColor=#FFE45E;strokeColor=#FF6392;fontColor=#5AA9E6;" parent="1" vertex="1">
          <mxGeometry x="295" y="260" width="100" height="40" as="geometry" />
        </mxCell>
        <mxCell id="pclMln9PGww5dzaaVnz9-45" value="pk" style="ellipse;whiteSpace=wrap;html=1;align=center;fontStyle=4;labelBackgroundColor=none;fillColor=#FFE45E;strokeColor=#FF6392;fontColor=#5AA9E6;" parent="1" vertex="1">
          <mxGeometry x="225" y="300" width="100" height="40" as="geometry" />
        </mxCell>
        <mxCell id="pclMln9PGww5dzaaVnz9-46" value="" style="endArrow=none;html=1;rounded=0;entryX=0;entryY=0.5;entryDx=0;entryDy=0;exitX=1;exitY=1;exitDx=0;exitDy=0;labelBackgroundColor=none;strokeColor=#FF6392;fontColor=default;" parent="1" source="pclMln9PGww5dzaaVnz9-45" target="pclMln9PGww5dzaaVnz9-2" edge="1">
          <mxGeometry relative="1" as="geometry">
            <mxPoint x="105" y="340" as="sourcePoint" />
            <mxPoint x="265" y="340" as="targetPoint" />
          </mxGeometry>
        </mxCell>
        <mxCell id="pclMln9PGww5dzaaVnz9-47" value="" style="endArrow=none;html=1;rounded=0;entryX=1;entryY=0.5;entryDx=0;entryDy=0;exitX=0;exitY=0.75;exitDx=0;exitDy=0;labelBackgroundColor=none;strokeColor=#FF6392;fontColor=default;" parent="1" source="pclMln9PGww5dzaaVnz9-2" target="pclMln9PGww5dzaaVnz9-40" edge="1">
          <mxGeometry relative="1" as="geometry">
            <mxPoint x="320" y="344" as="sourcePoint" />
            <mxPoint x="345" y="360" as="targetPoint" />
          </mxGeometry>
        </mxCell>
        <mxCell id="pclMln9PGww5dzaaVnz9-48" value="" style="endArrow=none;html=1;rounded=0;entryX=0.613;entryY=-0.007;entryDx=0;entryDy=0;exitX=0.174;exitY=1.017;exitDx=0;exitDy=0;exitPerimeter=0;entryPerimeter=0;labelBackgroundColor=none;strokeColor=#FF6392;fontColor=default;" parent="1" source="pclMln9PGww5dzaaVnz9-2" target="pclMln9PGww5dzaaVnz9-39" edge="1">
          <mxGeometry relative="1" as="geometry">
            <mxPoint x="345" y="375" as="sourcePoint" />
            <mxPoint x="335" y="380" as="targetPoint" />
          </mxGeometry>
        </mxCell>
        <mxCell id="pclMln9PGww5dzaaVnz9-49" value="" style="endArrow=none;html=1;rounded=0;exitX=0.75;exitY=1;exitDx=0;exitDy=0;labelBackgroundColor=none;strokeColor=#FF6392;fontColor=default;" parent="1" source="pclMln9PGww5dzaaVnz9-2" target="pclMln9PGww5dzaaVnz9-38" edge="1">
          <mxGeometry relative="1" as="geometry">
            <mxPoint x="366" y="391" as="sourcePoint" />
            <mxPoint x="356" y="400" as="targetPoint" />
          </mxGeometry>
        </mxCell>
        <mxCell id="pclMln9PGww5dzaaVnz9-50" value="" style="endArrow=none;html=1;rounded=0;exitX=1;exitY=0.75;exitDx=0;exitDy=0;entryX=0;entryY=0.5;entryDx=0;entryDy=0;labelBackgroundColor=none;strokeColor=#FF6392;fontColor=default;" parent="1" source="pclMln9PGww5dzaaVnz9-2" target="pclMln9PGww5dzaaVnz9-36" edge="1">
          <mxGeometry relative="1" as="geometry">
            <mxPoint x="435" y="390" as="sourcePoint" />
            <mxPoint x="442" y="401" as="targetPoint" />
          </mxGeometry>
        </mxCell>
        <mxCell id="pclMln9PGww5dzaaVnz9-51" value="" style="endArrow=none;html=1;rounded=0;exitX=0.999;exitY=0.355;exitDx=0;exitDy=0;exitPerimeter=0;labelBackgroundColor=none;strokeColor=#FF6392;fontColor=default;" parent="1" source="pclMln9PGww5dzaaVnz9-2" target="pclMln9PGww5dzaaVnz9-37" edge="1">
          <mxGeometry relative="1" as="geometry">
            <mxPoint x="465" y="375" as="sourcePoint" />
            <mxPoint x="485" y="380" as="targetPoint" />
          </mxGeometry>
        </mxCell>
        <mxCell id="pclMln9PGww5dzaaVnz9-54" value="" style="endArrow=none;html=1;rounded=0;exitX=0.882;exitY=-0.001;exitDx=0;exitDy=0;exitPerimeter=0;entryX=0.5;entryY=1;entryDx=0;entryDy=0;labelBackgroundColor=none;strokeColor=#FF6392;fontColor=default;" parent="1" source="pclMln9PGww5dzaaVnz9-2" target="pclMln9PGww5dzaaVnz9-42" edge="1">
          <mxGeometry relative="1" as="geometry">
            <mxPoint x="465" y="351" as="sourcePoint" />
            <mxPoint x="495" y="342" as="targetPoint" />
          </mxGeometry>
        </mxCell>
        <mxCell id="pclMln9PGww5dzaaVnz9-55" value="" style="endArrow=none;html=1;rounded=0;exitX=0.35;exitY=0.012;exitDx=0;exitDy=0;exitPerimeter=0;entryX=0.669;entryY=0.98;entryDx=0;entryDy=0;entryPerimeter=0;labelBackgroundColor=none;strokeColor=#FF6392;fontColor=default;" parent="1" source="pclMln9PGww5dzaaVnz9-2" target="pclMln9PGww5dzaaVnz9-43" edge="1">
          <mxGeometry relative="1" as="geometry">
            <mxPoint x="451" y="330" as="sourcePoint" />
            <mxPoint x="465" y="310" as="targetPoint" />
          </mxGeometry>
        </mxCell>
        <mxCell id="pclMln9PGww5dzaaVnz9-57" value="posts" style="shape=table;startSize=30;container=1;collapsible=1;childLayout=tableLayout;fixedRows=1;rowLines=0;fontStyle=1;align=center;resizeLast=1;html=1;labelBackgroundColor=none;fillColor=#FFE45E;strokeColor=#FF6392;fontColor=#5AA9E6;" parent="1" vertex="1">
          <mxGeometry x="1061" y="70" width="180" height="270" as="geometry" />
        </mxCell>
        <mxCell id="pclMln9PGww5dzaaVnz9-58" value="" style="shape=tableRow;horizontal=0;startSize=0;swimlaneHead=0;swimlaneBody=0;fillColor=none;collapsible=0;dropTarget=0;points=[[0,0.5],[1,0.5]];portConstraint=eastwest;top=0;left=0;right=0;bottom=1;labelBackgroundColor=none;strokeColor=#FF6392;fontColor=#5AA9E6;" parent="pclMln9PGww5dzaaVnz9-57" vertex="1">
          <mxGeometry y="30" width="180" height="30" as="geometry" />
        </mxCell>
        <mxCell id="pclMln9PGww5dzaaVnz9-59" value="PK" style="shape=partialRectangle;connectable=0;fillColor=none;top=0;left=0;bottom=0;right=0;fontStyle=1;overflow=hidden;whiteSpace=wrap;html=1;labelBackgroundColor=none;strokeColor=#FF6392;fontColor=#5AA9E6;" parent="pclMln9PGww5dzaaVnz9-58" vertex="1">
          <mxGeometry width="30" height="30" as="geometry">
            <mxRectangle width="30" height="30" as="alternateBounds" />
          </mxGeometry>
        </mxCell>
        <mxCell id="pclMln9PGww5dzaaVnz9-60" value="id" style="shape=partialRectangle;connectable=0;fillColor=none;top=0;left=0;bottom=0;right=0;align=left;spacingLeft=6;fontStyle=5;overflow=hidden;whiteSpace=wrap;html=1;labelBackgroundColor=none;strokeColor=#FF6392;fontColor=#5AA9E6;" parent="pclMln9PGww5dzaaVnz9-58" vertex="1">
          <mxGeometry x="30" width="150" height="30" as="geometry">
            <mxRectangle width="150" height="30" as="alternateBounds" />
          </mxGeometry>
        </mxCell>
        <mxCell id="pclMln9PGww5dzaaVnz9-140" value="" style="shape=tableRow;horizontal=0;startSize=0;swimlaneHead=0;swimlaneBody=0;fillColor=none;collapsible=0;dropTarget=0;points=[[0,0.5],[1,0.5]];portConstraint=eastwest;top=0;left=0;right=0;bottom=1;labelBackgroundColor=none;strokeColor=#FF6392;fontColor=#5AA9E6;" parent="pclMln9PGww5dzaaVnz9-57" vertex="1">
          <mxGeometry y="60" width="180" height="30" as="geometry" />
        </mxCell>
        <mxCell id="pclMln9PGww5dzaaVnz9-141" value="FK" style="shape=partialRectangle;connectable=0;fillColor=none;top=0;left=0;bottom=0;right=0;fontStyle=1;overflow=hidden;whiteSpace=wrap;html=1;labelBackgroundColor=none;strokeColor=#FF6392;fontColor=#5AA9E6;" parent="pclMln9PGww5dzaaVnz9-140" vertex="1">
          <mxGeometry width="30" height="30" as="geometry">
            <mxRectangle width="30" height="30" as="alternateBounds" />
          </mxGeometry>
        </mxCell>
        <mxCell id="pclMln9PGww5dzaaVnz9-142" value="&lt;span style=&quot;font-weight: 400;&quot;&gt;users_id(FK)&lt;/span&gt;" style="shape=partialRectangle;connectable=0;fillColor=none;top=0;left=0;bottom=0;right=0;align=left;spacingLeft=6;fontStyle=5;overflow=hidden;whiteSpace=wrap;html=1;labelBackgroundColor=none;strokeColor=#FF6392;fontColor=#5AA9E6;" parent="pclMln9PGww5dzaaVnz9-140" vertex="1">
          <mxGeometry x="30" width="150" height="30" as="geometry">
            <mxRectangle width="150" height="30" as="alternateBounds" />
          </mxGeometry>
        </mxCell>
        <mxCell id="pclMln9PGww5dzaaVnz9-143" value="" style="shape=tableRow;horizontal=0;startSize=0;swimlaneHead=0;swimlaneBody=0;fillColor=none;collapsible=0;dropTarget=0;points=[[0,0.5],[1,0.5]];portConstraint=eastwest;top=0;left=0;right=0;bottom=1;labelBackgroundColor=none;strokeColor=#FF6392;fontColor=#5AA9E6;" parent="pclMln9PGww5dzaaVnz9-57" vertex="1">
          <mxGeometry y="90" width="180" height="30" as="geometry" />
        </mxCell>
        <mxCell id="pclMln9PGww5dzaaVnz9-144" value="FK" style="shape=partialRectangle;connectable=0;fillColor=none;top=0;left=0;bottom=0;right=0;fontStyle=1;overflow=hidden;whiteSpace=wrap;html=1;labelBackgroundColor=none;strokeColor=#FF6392;fontColor=#5AA9E6;" parent="pclMln9PGww5dzaaVnz9-143" vertex="1">
          <mxGeometry width="30" height="30" as="geometry">
            <mxRectangle width="30" height="30" as="alternateBounds" />
          </mxGeometry>
        </mxCell>
        <mxCell id="pclMln9PGww5dzaaVnz9-145" value="&lt;span style=&quot;font-weight: 400;&quot;&gt;categories_id(FK)&lt;/span&gt;" style="shape=partialRectangle;connectable=0;fillColor=none;top=0;left=0;bottom=0;right=0;align=left;spacingLeft=6;fontStyle=5;overflow=hidden;whiteSpace=wrap;html=1;labelBackgroundColor=none;strokeColor=#FF6392;fontColor=#5AA9E6;" parent="pclMln9PGww5dzaaVnz9-143" vertex="1">
          <mxGeometry x="30" width="150" height="30" as="geometry">
            <mxRectangle width="150" height="30" as="alternateBounds" />
          </mxGeometry>
        </mxCell>
        <mxCell id="pclMln9PGww5dzaaVnz9-61" value="" style="shape=tableRow;horizontal=0;startSize=0;swimlaneHead=0;swimlaneBody=0;fillColor=none;collapsible=0;dropTarget=0;points=[[0,0.5],[1,0.5]];portConstraint=eastwest;top=0;left=0;right=0;bottom=0;labelBackgroundColor=none;strokeColor=#FF6392;fontColor=#5AA9E6;" parent="pclMln9PGww5dzaaVnz9-57" vertex="1">
          <mxGeometry y="120" width="180" height="30" as="geometry" />
        </mxCell>
        <mxCell id="pclMln9PGww5dzaaVnz9-62" value="" style="shape=partialRectangle;connectable=0;fillColor=none;top=0;left=0;bottom=0;right=0;editable=1;overflow=hidden;whiteSpace=wrap;html=1;labelBackgroundColor=none;strokeColor=#FF6392;fontColor=#5AA9E6;" parent="pclMln9PGww5dzaaVnz9-61" vertex="1">
          <mxGeometry width="30" height="30" as="geometry">
            <mxRectangle width="30" height="30" as="alternateBounds" />
          </mxGeometry>
        </mxCell>
        <mxCell id="pclMln9PGww5dzaaVnz9-63" value="title" style="shape=partialRectangle;connectable=0;fillColor=none;top=0;left=0;bottom=0;right=0;align=left;spacingLeft=6;overflow=hidden;whiteSpace=wrap;html=1;labelBackgroundColor=none;strokeColor=#FF6392;fontColor=#5AA9E6;" parent="pclMln9PGww5dzaaVnz9-61" vertex="1">
          <mxGeometry x="30" width="150" height="30" as="geometry">
            <mxRectangle width="150" height="30" as="alternateBounds" />
          </mxGeometry>
        </mxCell>
        <mxCell id="pclMln9PGww5dzaaVnz9-64" value="" style="shape=tableRow;horizontal=0;startSize=0;swimlaneHead=0;swimlaneBody=0;fillColor=none;collapsible=0;dropTarget=0;points=[[0,0.5],[1,0.5]];portConstraint=eastwest;top=0;left=0;right=0;bottom=0;labelBackgroundColor=none;strokeColor=#FF6392;fontColor=#5AA9E6;" parent="pclMln9PGww5dzaaVnz9-57" vertex="1">
          <mxGeometry y="150" width="180" height="30" as="geometry" />
        </mxCell>
        <mxCell id="pclMln9PGww5dzaaVnz9-65" value="" style="shape=partialRectangle;connectable=0;fillColor=none;top=0;left=0;bottom=0;right=0;editable=1;overflow=hidden;whiteSpace=wrap;html=1;labelBackgroundColor=none;strokeColor=#FF6392;fontColor=#5AA9E6;" parent="pclMln9PGww5dzaaVnz9-64" vertex="1">
          <mxGeometry width="30" height="30" as="geometry">
            <mxRectangle width="30" height="30" as="alternateBounds" />
          </mxGeometry>
        </mxCell>
        <mxCell id="pclMln9PGww5dzaaVnz9-66" value="contents" style="shape=partialRectangle;connectable=0;fillColor=none;top=0;left=0;bottom=0;right=0;align=left;spacingLeft=6;overflow=hidden;whiteSpace=wrap;html=1;labelBackgroundColor=none;strokeColor=#FF6392;fontColor=#5AA9E6;" parent="pclMln9PGww5dzaaVnz9-64" vertex="1">
          <mxGeometry x="30" width="150" height="30" as="geometry">
            <mxRectangle width="150" height="30" as="alternateBounds" />
          </mxGeometry>
        </mxCell>
        <mxCell id="pclMln9PGww5dzaaVnz9-67" value="" style="shape=tableRow;horizontal=0;startSize=0;swimlaneHead=0;swimlaneBody=0;fillColor=none;collapsible=0;dropTarget=0;points=[[0,0.5],[1,0.5]];portConstraint=eastwest;top=0;left=0;right=0;bottom=0;labelBackgroundColor=none;strokeColor=#FF6392;fontColor=#5AA9E6;" parent="pclMln9PGww5dzaaVnz9-57" vertex="1">
          <mxGeometry y="180" width="180" height="30" as="geometry" />
        </mxCell>
        <mxCell id="pclMln9PGww5dzaaVnz9-68" value="" style="shape=partialRectangle;connectable=0;fillColor=none;top=0;left=0;bottom=0;right=0;editable=1;overflow=hidden;whiteSpace=wrap;html=1;labelBackgroundColor=none;strokeColor=#FF6392;fontColor=#5AA9E6;" parent="pclMln9PGww5dzaaVnz9-67" vertex="1">
          <mxGeometry width="30" height="30" as="geometry">
            <mxRectangle width="30" height="30" as="alternateBounds" />
          </mxGeometry>
        </mxCell>
        <mxCell id="pclMln9PGww5dzaaVnz9-69" value="cartegory" style="shape=partialRectangle;connectable=0;fillColor=none;top=0;left=0;bottom=0;right=0;align=left;spacingLeft=6;overflow=hidden;whiteSpace=wrap;html=1;labelBackgroundColor=none;strokeColor=#FF6392;fontColor=#5AA9E6;" parent="pclMln9PGww5dzaaVnz9-67" vertex="1">
          <mxGeometry x="30" width="150" height="30" as="geometry">
            <mxRectangle width="150" height="30" as="alternateBounds" />
          </mxGeometry>
        </mxCell>
        <mxCell id="pclMln9PGww5dzaaVnz9-70" value="" style="shape=tableRow;horizontal=0;startSize=0;swimlaneHead=0;swimlaneBody=0;fillColor=none;collapsible=0;dropTarget=0;points=[[0,0.5],[1,0.5]];portConstraint=eastwest;top=0;left=0;right=0;bottom=0;labelBackgroundColor=none;strokeColor=#FF6392;fontColor=#5AA9E6;" parent="pclMln9PGww5dzaaVnz9-57" vertex="1">
          <mxGeometry y="210" width="180" height="30" as="geometry" />
        </mxCell>
        <mxCell id="pclMln9PGww5dzaaVnz9-71" value="" style="shape=partialRectangle;connectable=0;fillColor=none;top=0;left=0;bottom=0;right=0;editable=1;overflow=hidden;whiteSpace=wrap;html=1;labelBackgroundColor=none;strokeColor=#FF6392;fontColor=#5AA9E6;" parent="pclMln9PGww5dzaaVnz9-70" vertex="1">
          <mxGeometry width="30" height="30" as="geometry">
            <mxRectangle width="30" height="30" as="alternateBounds" />
          </mxGeometry>
        </mxCell>
        <mxCell id="pclMln9PGww5dzaaVnz9-72" value="createat" style="shape=partialRectangle;connectable=0;fillColor=none;top=0;left=0;bottom=0;right=0;align=left;spacingLeft=6;overflow=hidden;whiteSpace=wrap;html=1;labelBackgroundColor=none;strokeColor=#FF6392;fontColor=#5AA9E6;" parent="pclMln9PGww5dzaaVnz9-70" vertex="1">
          <mxGeometry x="30" width="150" height="30" as="geometry">
            <mxRectangle width="150" height="30" as="alternateBounds" />
          </mxGeometry>
        </mxCell>
        <mxCell id="pclMln9PGww5dzaaVnz9-73" value="" style="shape=tableRow;horizontal=0;startSize=0;swimlaneHead=0;swimlaneBody=0;fillColor=none;collapsible=0;dropTarget=0;points=[[0,0.5],[1,0.5]];portConstraint=eastwest;top=0;left=0;right=0;bottom=0;labelBackgroundColor=none;strokeColor=#FF6392;fontColor=#5AA9E6;" parent="pclMln9PGww5dzaaVnz9-57" vertex="1">
          <mxGeometry y="240" width="180" height="30" as="geometry" />
        </mxCell>
        <mxCell id="pclMln9PGww5dzaaVnz9-74" value="" style="shape=partialRectangle;connectable=0;fillColor=none;top=0;left=0;bottom=0;right=0;editable=1;overflow=hidden;whiteSpace=wrap;html=1;labelBackgroundColor=none;strokeColor=#FF6392;fontColor=#5AA9E6;" parent="pclMln9PGww5dzaaVnz9-73" vertex="1">
          <mxGeometry width="30" height="30" as="geometry">
            <mxRectangle width="30" height="30" as="alternateBounds" />
          </mxGeometry>
        </mxCell>
        <mxCell id="pclMln9PGww5dzaaVnz9-75" value="view" style="shape=partialRectangle;connectable=0;fillColor=none;top=0;left=0;bottom=0;right=0;align=left;spacingLeft=6;overflow=hidden;whiteSpace=wrap;html=1;labelBackgroundColor=none;strokeColor=#FF6392;fontColor=#5AA9E6;" parent="pclMln9PGww5dzaaVnz9-73" vertex="1">
          <mxGeometry x="30" width="150" height="30" as="geometry">
            <mxRectangle width="150" height="30" as="alternateBounds" />
          </mxGeometry>
        </mxCell>
        <mxCell id="pclMln9PGww5dzaaVnz9-85" value="name" style="ellipse;whiteSpace=wrap;html=1;align=center;labelBackgroundColor=none;fillColor=#FFE45E;strokeColor=#FF6392;fontColor=#5AA9E6;" parent="1" vertex="1">
          <mxGeometry x="167" y="525" width="100" height="40" as="geometry" />
        </mxCell>
        <mxCell id="pclMln9PGww5dzaaVnz9-87" value="id" style="ellipse;whiteSpace=wrap;html=1;align=center;fontStyle=4;labelBackgroundColor=none;fillColor=#FFE45E;strokeColor=#FF6392;fontColor=#5AA9E6;" parent="1" vertex="1">
          <mxGeometry x="167" y="480" width="100" height="40" as="geometry" />
        </mxCell>
        <mxCell id="pclMln9PGww5dzaaVnz9-88" value="" style="endArrow=none;html=1;rounded=0;labelBackgroundColor=none;strokeColor=#FF6392;fontColor=default;" parent="1" source="pclMln9PGww5dzaaVnz9-3" target="pclMln9PGww5dzaaVnz9-87" edge="1">
          <mxGeometry relative="1" as="geometry">
            <mxPoint x="62" y="440" as="sourcePoint" />
            <mxPoint x="222" y="440" as="targetPoint" />
          </mxGeometry>
        </mxCell>
        <mxCell id="pclMln9PGww5dzaaVnz9-89" value="" style="endArrow=none;html=1;rounded=0;entryX=0.036;entryY=0.306;entryDx=0;entryDy=0;entryPerimeter=0;labelBackgroundColor=none;strokeColor=#FF6392;fontColor=default;" parent="1" source="pclMln9PGww5dzaaVnz9-3" target="pclMln9PGww5dzaaVnz9-85" edge="1">
          <mxGeometry relative="1" as="geometry">
            <mxPoint x="152" y="530" as="sourcePoint" />
            <mxPoint x="182" y="519" as="targetPoint" />
          </mxGeometry>
        </mxCell>
        <mxCell id="pclMln9PGww5dzaaVnz9-90" value="&lt;span style=&quot;font-weight: 400; text-wrap-mode: wrap;&quot;&gt;categories&lt;/span&gt;" style="shape=table;startSize=30;container=1;collapsible=1;childLayout=tableLayout;fixedRows=1;rowLines=0;fontStyle=1;align=center;resizeLast=1;html=1;labelBackgroundColor=none;fillColor=#FFE45E;strokeColor=#FF6392;fontColor=#5AA9E6;" parent="1" vertex="1">
          <mxGeometry x="1320" y="260" width="180" height="90" as="geometry" />
        </mxCell>
        <mxCell id="pclMln9PGww5dzaaVnz9-91" value="" style="shape=tableRow;horizontal=0;startSize=0;swimlaneHead=0;swimlaneBody=0;fillColor=none;collapsible=0;dropTarget=0;points=[[0,0.5],[1,0.5]];portConstraint=eastwest;top=0;left=0;right=0;bottom=1;labelBackgroundColor=none;strokeColor=#FF6392;fontColor=#5AA9E6;" parent="pclMln9PGww5dzaaVnz9-90" vertex="1">
          <mxGeometry y="30" width="180" height="30" as="geometry" />
        </mxCell>
        <mxCell id="pclMln9PGww5dzaaVnz9-92" value="PK" style="shape=partialRectangle;connectable=0;fillColor=none;top=0;left=0;bottom=0;right=0;fontStyle=1;overflow=hidden;whiteSpace=wrap;html=1;labelBackgroundColor=none;strokeColor=#FF6392;fontColor=#5AA9E6;" parent="pclMln9PGww5dzaaVnz9-91" vertex="1">
          <mxGeometry width="30" height="30" as="geometry">
            <mxRectangle width="30" height="30" as="alternateBounds" />
          </mxGeometry>
        </mxCell>
        <mxCell id="pclMln9PGww5dzaaVnz9-93" value="id" style="shape=partialRectangle;connectable=0;fillColor=none;top=0;left=0;bottom=0;right=0;align=left;spacingLeft=6;fontStyle=5;overflow=hidden;whiteSpace=wrap;html=1;labelBackgroundColor=none;strokeColor=#FF6392;fontColor=#5AA9E6;" parent="pclMln9PGww5dzaaVnz9-91" vertex="1">
          <mxGeometry x="30" width="150" height="30" as="geometry">
            <mxRectangle width="150" height="30" as="alternateBounds" />
          </mxGeometry>
        </mxCell>
        <mxCell id="pclMln9PGww5dzaaVnz9-94" value="" style="shape=tableRow;horizontal=0;startSize=0;swimlaneHead=0;swimlaneBody=0;fillColor=none;collapsible=0;dropTarget=0;points=[[0,0.5],[1,0.5]];portConstraint=eastwest;top=0;left=0;right=0;bottom=0;labelBackgroundColor=none;strokeColor=#FF6392;fontColor=#5AA9E6;" parent="pclMln9PGww5dzaaVnz9-90" vertex="1">
          <mxGeometry y="60" width="180" height="30" as="geometry" />
        </mxCell>
        <mxCell id="pclMln9PGww5dzaaVnz9-95" value="" style="shape=partialRectangle;connectable=0;fillColor=none;top=0;left=0;bottom=0;right=0;editable=1;overflow=hidden;whiteSpace=wrap;html=1;labelBackgroundColor=none;strokeColor=#FF6392;fontColor=#5AA9E6;" parent="pclMln9PGww5dzaaVnz9-94" vertex="1">
          <mxGeometry width="30" height="30" as="geometry">
            <mxRectangle width="30" height="30" as="alternateBounds" />
          </mxGeometry>
        </mxCell>
        <mxCell id="pclMln9PGww5dzaaVnz9-96" value="&lt;span style=&quot;text-align: center;&quot;&gt;name&lt;/span&gt;" style="shape=partialRectangle;connectable=0;fillColor=none;top=0;left=0;bottom=0;right=0;align=left;spacingLeft=6;overflow=hidden;whiteSpace=wrap;html=1;labelBackgroundColor=none;strokeColor=#FF6392;fontColor=#5AA9E6;" parent="pclMln9PGww5dzaaVnz9-94" vertex="1">
          <mxGeometry x="30" width="150" height="30" as="geometry">
            <mxRectangle width="150" height="30" as="alternateBounds" />
          </mxGeometry>
        </mxCell>
        <mxCell id="pclMln9PGww5dzaaVnz9-103" value="users_id(FK)" style="ellipse;whiteSpace=wrap;html=1;align=center;labelBackgroundColor=none;fillColor=#FFE45E;strokeColor=#FF6392;fontColor=#5AA9E6;" parent="1" vertex="1">
          <mxGeometry x="175" y="650" width="100" height="40" as="geometry" />
        </mxCell>
        <mxCell id="pclMln9PGww5dzaaVnz9-104" value="posts_id(FK)" style="ellipse;whiteSpace=wrap;html=1;align=center;labelBackgroundColor=none;fillColor=#FFE45E;strokeColor=#FF6392;fontColor=#5AA9E6;" parent="1" vertex="1">
          <mxGeometry x="175" y="700" width="100" height="40" as="geometry" />
        </mxCell>
        <mxCell id="pclMln9PGww5dzaaVnz9-105" value="id" style="ellipse;whiteSpace=wrap;html=1;align=center;fontStyle=4;labelBackgroundColor=none;fillColor=#FFE45E;strokeColor=#FF6392;fontColor=#5AA9E6;" parent="1" vertex="1">
          <mxGeometry x="175" y="600" width="100" height="40" as="geometry" />
        </mxCell>
        <mxCell id="pclMln9PGww5dzaaVnz9-106" value="" style="endArrow=none;html=1;rounded=0;exitX=1;exitY=0.5;exitDx=0;exitDy=0;entryX=0;entryY=1;entryDx=0;entryDy=0;labelBackgroundColor=none;strokeColor=#FF6392;fontColor=default;" parent="1" source="pclMln9PGww5dzaaVnz9-4" target="pclMln9PGww5dzaaVnz9-105" edge="1">
          <mxGeometry relative="1" as="geometry">
            <mxPoint x="95" y="680" as="sourcePoint" />
            <mxPoint x="255" y="680" as="targetPoint" />
          </mxGeometry>
        </mxCell>
        <mxCell id="pclMln9PGww5dzaaVnz9-107" value="" style="endArrow=none;html=1;rounded=0;exitX=1.006;exitY=0.596;exitDx=0;exitDy=0;exitPerimeter=0;labelBackgroundColor=none;strokeColor=#FF6392;fontColor=default;" parent="1" source="pclMln9PGww5dzaaVnz9-4" target="pclMln9PGww5dzaaVnz9-103" edge="1">
          <mxGeometry relative="1" as="geometry">
            <mxPoint x="160" y="680" as="sourcePoint" />
            <mxPoint x="202" y="643" as="targetPoint" />
          </mxGeometry>
        </mxCell>
        <mxCell id="pclMln9PGww5dzaaVnz9-108" value="" style="endArrow=none;html=1;rounded=0;exitX=0.998;exitY=0.712;exitDx=0;exitDy=0;exitPerimeter=0;labelBackgroundColor=none;strokeColor=#FF6392;fontColor=default;" parent="1" source="pclMln9PGww5dzaaVnz9-4" target="pclMln9PGww5dzaaVnz9-104" edge="1">
          <mxGeometry relative="1" as="geometry">
            <mxPoint x="158" y="686" as="sourcePoint" />
            <mxPoint x="186" y="684" as="targetPoint" />
          </mxGeometry>
        </mxCell>
        <mxCell id="pclMln9PGww5dzaaVnz9-109" value="views" style="shape=table;startSize=30;container=1;collapsible=1;childLayout=tableLayout;fixedRows=1;rowLines=0;fontStyle=1;align=center;resizeLast=1;html=1;labelBackgroundColor=none;fillColor=#FFE45E;strokeColor=#FF6392;fontColor=#5AA9E6;" parent="1" vertex="1">
          <mxGeometry x="1310" y="550" width="180" height="120" as="geometry" />
        </mxCell>
        <mxCell id="pclMln9PGww5dzaaVnz9-110" value="" style="shape=tableRow;horizontal=0;startSize=0;swimlaneHead=0;swimlaneBody=0;fillColor=none;collapsible=0;dropTarget=0;points=[[0,0.5],[1,0.5]];portConstraint=eastwest;top=0;left=0;right=0;bottom=1;labelBackgroundColor=none;strokeColor=#FF6392;fontColor=#5AA9E6;" parent="pclMln9PGww5dzaaVnz9-109" vertex="1">
          <mxGeometry y="30" width="180" height="30" as="geometry" />
        </mxCell>
        <mxCell id="pclMln9PGww5dzaaVnz9-111" value="PK" style="shape=partialRectangle;connectable=0;fillColor=none;top=0;left=0;bottom=0;right=0;fontStyle=1;overflow=hidden;whiteSpace=wrap;html=1;labelBackgroundColor=none;strokeColor=#FF6392;fontColor=#5AA9E6;" parent="pclMln9PGww5dzaaVnz9-110" vertex="1">
          <mxGeometry width="30" height="30" as="geometry">
            <mxRectangle width="30" height="30" as="alternateBounds" />
          </mxGeometry>
        </mxCell>
        <mxCell id="pclMln9PGww5dzaaVnz9-112" value="id" style="shape=partialRectangle;connectable=0;fillColor=none;top=0;left=0;bottom=0;right=0;align=left;spacingLeft=6;fontStyle=5;overflow=hidden;whiteSpace=wrap;html=1;labelBackgroundColor=none;strokeColor=#FF6392;fontColor=#5AA9E6;" parent="pclMln9PGww5dzaaVnz9-110" vertex="1">
          <mxGeometry x="30" width="150" height="30" as="geometry">
            <mxRectangle width="150" height="30" as="alternateBounds" />
          </mxGeometry>
        </mxCell>
        <mxCell id="pclMln9PGww5dzaaVnz9-134" value="" style="shape=tableRow;horizontal=0;startSize=0;swimlaneHead=0;swimlaneBody=0;fillColor=none;collapsible=0;dropTarget=0;points=[[0,0.5],[1,0.5]];portConstraint=eastwest;top=0;left=0;right=0;bottom=1;labelBackgroundColor=none;strokeColor=#FF6392;fontColor=#5AA9E6;" parent="pclMln9PGww5dzaaVnz9-109" vertex="1">
          <mxGeometry y="60" width="180" height="30" as="geometry" />
        </mxCell>
        <mxCell id="pclMln9PGww5dzaaVnz9-135" value="FK" style="shape=partialRectangle;connectable=0;fillColor=none;top=0;left=0;bottom=0;right=0;fontStyle=1;overflow=hidden;whiteSpace=wrap;html=1;labelBackgroundColor=none;strokeColor=#FF6392;fontColor=#5AA9E6;" parent="pclMln9PGww5dzaaVnz9-134" vertex="1">
          <mxGeometry width="30" height="30" as="geometry">
            <mxRectangle width="30" height="30" as="alternateBounds" />
          </mxGeometry>
        </mxCell>
        <mxCell id="pclMln9PGww5dzaaVnz9-136" value="&lt;span style=&quot;font-weight: 400; text-align: center;&quot;&gt;users_id(FK)&lt;/span&gt;" style="shape=partialRectangle;connectable=0;fillColor=none;top=0;left=0;bottom=0;right=0;align=left;spacingLeft=6;fontStyle=5;overflow=hidden;whiteSpace=wrap;html=1;labelBackgroundColor=none;strokeColor=#FF6392;fontColor=#5AA9E6;" parent="pclMln9PGww5dzaaVnz9-134" vertex="1">
          <mxGeometry x="30" width="150" height="30" as="geometry">
            <mxRectangle width="150" height="30" as="alternateBounds" />
          </mxGeometry>
        </mxCell>
        <mxCell id="pclMln9PGww5dzaaVnz9-137" value="" style="shape=tableRow;horizontal=0;startSize=0;swimlaneHead=0;swimlaneBody=0;fillColor=none;collapsible=0;dropTarget=0;points=[[0,0.5],[1,0.5]];portConstraint=eastwest;top=0;left=0;right=0;bottom=1;labelBackgroundColor=none;strokeColor=#FF6392;fontColor=#5AA9E6;" parent="pclMln9PGww5dzaaVnz9-109" vertex="1">
          <mxGeometry y="90" width="180" height="30" as="geometry" />
        </mxCell>
        <mxCell id="pclMln9PGww5dzaaVnz9-138" value="FK" style="shape=partialRectangle;connectable=0;fillColor=none;top=0;left=0;bottom=0;right=0;fontStyle=1;overflow=hidden;whiteSpace=wrap;html=1;labelBackgroundColor=none;strokeColor=#FF6392;fontColor=#5AA9E6;" parent="pclMln9PGww5dzaaVnz9-137" vertex="1">
          <mxGeometry width="30" height="30" as="geometry">
            <mxRectangle width="30" height="30" as="alternateBounds" />
          </mxGeometry>
        </mxCell>
        <mxCell id="pclMln9PGww5dzaaVnz9-139" value="&lt;span style=&quot;font-weight: 400; text-align: center;&quot;&gt;posts_id(FK)&lt;/span&gt;" style="shape=partialRectangle;connectable=0;fillColor=none;top=0;left=0;bottom=0;right=0;align=left;spacingLeft=6;fontStyle=5;overflow=hidden;whiteSpace=wrap;html=1;labelBackgroundColor=none;strokeColor=#FF6392;fontColor=#5AA9E6;" parent="pclMln9PGww5dzaaVnz9-137" vertex="1">
          <mxGeometry x="30" width="150" height="30" as="geometry">
            <mxRectangle width="150" height="30" as="alternateBounds" />
          </mxGeometry>
        </mxCell>
        <mxCell id="pclMln9PGww5dzaaVnz9-146" value="tag" style="ellipse;whiteSpace=wrap;html=1;align=center;labelBackgroundColor=none;fillColor=#FFE45E;strokeColor=#FF6392;fontColor=#5AA9E6;" parent="1" vertex="1">
          <mxGeometry x="175" y="830" width="100" height="40" as="geometry" />
        </mxCell>
        <mxCell id="pclMln9PGww5dzaaVnz9-147" value="id" style="ellipse;whiteSpace=wrap;html=1;align=center;fontStyle=4;labelBackgroundColor=none;fillColor=#FFE45E;strokeColor=#FF6392;fontColor=#5AA9E6;" parent="1" vertex="1">
          <mxGeometry x="175" y="780" width="100" height="40" as="geometry" />
        </mxCell>
        <mxCell id="pclMln9PGww5dzaaVnz9-148" value="" style="endArrow=none;html=1;rounded=0;exitX=1;exitY=0.25;exitDx=0;exitDy=0;entryX=0.092;entryY=0.764;entryDx=0;entryDy=0;entryPerimeter=0;labelBackgroundColor=none;strokeColor=#FF6392;fontColor=default;" parent="1" source="pclMln9PGww5dzaaVnz9-5" target="pclMln9PGww5dzaaVnz9-147" edge="1">
          <mxGeometry relative="1" as="geometry">
            <mxPoint x="110" y="820" as="sourcePoint" />
            <mxPoint x="270" y="820" as="targetPoint" />
          </mxGeometry>
        </mxCell>
        <mxCell id="pclMln9PGww5dzaaVnz9-149" value="" style="endArrow=none;html=1;rounded=0;exitX=1;exitY=0.5;exitDx=0;exitDy=0;labelBackgroundColor=none;strokeColor=#FF6392;fontColor=default;" parent="1" source="pclMln9PGww5dzaaVnz9-5" target="pclMln9PGww5dzaaVnz9-146" edge="1">
          <mxGeometry relative="1" as="geometry">
            <mxPoint x="170" y="825" as="sourcePoint" />
            <mxPoint x="194" y="821" as="targetPoint" />
          </mxGeometry>
        </mxCell>
        <mxCell id="pclMln9PGww5dzaaVnz9-150" value="&lt;span style=&quot;font-weight: 400; text-wrap-mode: wrap;&quot;&gt;hashtags&lt;/span&gt;" style="shape=table;startSize=30;container=1;collapsible=1;childLayout=tableLayout;fixedRows=1;rowLines=0;fontStyle=1;align=center;resizeLast=1;html=1;labelBackgroundColor=none;fillColor=#FFE45E;strokeColor=#FF6392;fontColor=#5AA9E6;" parent="1" vertex="1">
          <mxGeometry x="827" y="450" width="180" height="90" as="geometry" />
        </mxCell>
        <mxCell id="pclMln9PGww5dzaaVnz9-151" value="" style="shape=tableRow;horizontal=0;startSize=0;swimlaneHead=0;swimlaneBody=0;fillColor=none;collapsible=0;dropTarget=0;points=[[0,0.5],[1,0.5]];portConstraint=eastwest;top=0;left=0;right=0;bottom=1;labelBackgroundColor=none;strokeColor=#FF6392;fontColor=#5AA9E6;" parent="pclMln9PGww5dzaaVnz9-150" vertex="1">
          <mxGeometry y="30" width="180" height="30" as="geometry" />
        </mxCell>
        <mxCell id="pclMln9PGww5dzaaVnz9-152" value="PK" style="shape=partialRectangle;connectable=0;fillColor=none;top=0;left=0;bottom=0;right=0;fontStyle=1;overflow=hidden;whiteSpace=wrap;html=1;labelBackgroundColor=none;strokeColor=#FF6392;fontColor=#5AA9E6;" parent="pclMln9PGww5dzaaVnz9-151" vertex="1">
          <mxGeometry width="30" height="30" as="geometry">
            <mxRectangle width="30" height="30" as="alternateBounds" />
          </mxGeometry>
        </mxCell>
        <mxCell id="pclMln9PGww5dzaaVnz9-153" value="id" style="shape=partialRectangle;connectable=0;fillColor=none;top=0;left=0;bottom=0;right=0;align=left;spacingLeft=6;fontStyle=5;overflow=hidden;whiteSpace=wrap;html=1;labelBackgroundColor=none;strokeColor=#FF6392;fontColor=#5AA9E6;" parent="pclMln9PGww5dzaaVnz9-151" vertex="1">
          <mxGeometry x="30" width="150" height="30" as="geometry">
            <mxRectangle width="150" height="30" as="alternateBounds" />
          </mxGeometry>
        </mxCell>
        <mxCell id="pclMln9PGww5dzaaVnz9-154" value="" style="shape=tableRow;horizontal=0;startSize=0;swimlaneHead=0;swimlaneBody=0;fillColor=none;collapsible=0;dropTarget=0;points=[[0,0.5],[1,0.5]];portConstraint=eastwest;top=0;left=0;right=0;bottom=0;labelBackgroundColor=none;strokeColor=#FF6392;fontColor=#5AA9E6;" parent="pclMln9PGww5dzaaVnz9-150" vertex="1">
          <mxGeometry y="60" width="180" height="30" as="geometry" />
        </mxCell>
        <mxCell id="pclMln9PGww5dzaaVnz9-155" value="" style="shape=partialRectangle;connectable=0;fillColor=none;top=0;left=0;bottom=0;right=0;editable=1;overflow=hidden;whiteSpace=wrap;html=1;labelBackgroundColor=none;strokeColor=#FF6392;fontColor=#5AA9E6;" parent="pclMln9PGww5dzaaVnz9-154" vertex="1">
          <mxGeometry width="30" height="30" as="geometry">
            <mxRectangle width="30" height="30" as="alternateBounds" />
          </mxGeometry>
        </mxCell>
        <mxCell id="pclMln9PGww5dzaaVnz9-156" value="tag" style="shape=partialRectangle;connectable=0;fillColor=none;top=0;left=0;bottom=0;right=0;align=left;spacingLeft=6;overflow=hidden;whiteSpace=wrap;html=1;labelBackgroundColor=none;strokeColor=#FF6392;fontColor=#5AA9E6;" parent="pclMln9PGww5dzaaVnz9-154" vertex="1">
          <mxGeometry x="30" width="150" height="30" as="geometry">
            <mxRectangle width="150" height="30" as="alternateBounds" />
          </mxGeometry>
        </mxCell>
        <mxCell id="pclMln9PGww5dzaaVnz9-163" value="users_id(FK)" style="ellipse;whiteSpace=wrap;html=1;align=center;labelBackgroundColor=none;fillColor=#FFE45E;strokeColor=#FF6392;fontColor=#5AA9E6;" parent="1" vertex="1">
          <mxGeometry x="175" y="950" width="100" height="40" as="geometry" />
        </mxCell>
        <mxCell id="pclMln9PGww5dzaaVnz9-165" value="posts_id(FK)" style="ellipse;whiteSpace=wrap;html=1;align=center;labelBackgroundColor=none;fillColor=#FFE45E;strokeColor=#FF6392;fontColor=#5AA9E6;" parent="1" vertex="1">
          <mxGeometry x="175" y="1000" width="100" height="40" as="geometry" />
        </mxCell>
        <mxCell id="pclMln9PGww5dzaaVnz9-166" value="id" style="ellipse;whiteSpace=wrap;html=1;align=center;fontStyle=4;labelBackgroundColor=none;fillColor=#FFE45E;strokeColor=#FF6392;fontColor=#5AA9E6;" parent="1" vertex="1">
          <mxGeometry x="175" y="900" width="100" height="40" as="geometry" />
        </mxCell>
        <mxCell id="pclMln9PGww5dzaaVnz9-167" value="" style="endArrow=none;html=1;rounded=0;exitX=1.002;exitY=0.332;exitDx=0;exitDy=0;exitPerimeter=0;labelBackgroundColor=none;strokeColor=#FF6392;fontColor=default;" parent="1" source="pclMln9PGww5dzaaVnz9-6" target="pclMln9PGww5dzaaVnz9-166" edge="1">
          <mxGeometry relative="1" as="geometry">
            <mxPoint x="160" y="959.84" as="sourcePoint" />
            <mxPoint x="320" y="959.84" as="targetPoint" />
          </mxGeometry>
        </mxCell>
        <mxCell id="pclMln9PGww5dzaaVnz9-168" value="" style="endArrow=none;html=1;rounded=0;exitX=1.003;exitY=0.542;exitDx=0;exitDy=0;exitPerimeter=0;entryX=0.007;entryY=0.541;entryDx=0;entryDy=0;entryPerimeter=0;labelBackgroundColor=none;strokeColor=#FF6392;fontColor=default;" parent="1" source="pclMln9PGww5dzaaVnz9-6" target="pclMln9PGww5dzaaVnz9-163" edge="1">
          <mxGeometry relative="1" as="geometry">
            <mxPoint x="160" y="970" as="sourcePoint" />
            <mxPoint x="205" y="946" as="targetPoint" />
          </mxGeometry>
        </mxCell>
        <mxCell id="pclMln9PGww5dzaaVnz9-169" value="" style="endArrow=none;html=1;rounded=0;exitX=0.997;exitY=0.731;exitDx=0;exitDy=0;exitPerimeter=0;entryX=0.04;entryY=0.272;entryDx=0;entryDy=0;entryPerimeter=0;labelBackgroundColor=none;strokeColor=#FF6392;fontColor=default;" parent="1" source="pclMln9PGww5dzaaVnz9-6" target="pclMln9PGww5dzaaVnz9-165" edge="1">
          <mxGeometry relative="1" as="geometry">
            <mxPoint x="158" y="982" as="sourcePoint" />
            <mxPoint x="187" y="980" as="targetPoint" />
          </mxGeometry>
        </mxCell>
        <mxCell id="pclMln9PGww5dzaaVnz9-170" value="likes" style="shape=table;startSize=30;container=1;collapsible=1;childLayout=tableLayout;fixedRows=1;rowLines=0;fontStyle=1;align=center;resizeLast=1;html=1;labelBackgroundColor=none;fillColor=#FFE45E;strokeColor=#FF6392;fontColor=#5AA9E6;" parent="1" vertex="1">
          <mxGeometry x="1120" y="550" width="180" height="120" as="geometry" />
        </mxCell>
        <mxCell id="pclMln9PGww5dzaaVnz9-171" value="" style="shape=tableRow;horizontal=0;startSize=0;swimlaneHead=0;swimlaneBody=0;fillColor=none;collapsible=0;dropTarget=0;points=[[0,0.5],[1,0.5]];portConstraint=eastwest;top=0;left=0;right=0;bottom=1;labelBackgroundColor=none;strokeColor=#FF6392;fontColor=#5AA9E6;" parent="pclMln9PGww5dzaaVnz9-170" vertex="1">
          <mxGeometry y="30" width="180" height="30" as="geometry" />
        </mxCell>
        <mxCell id="pclMln9PGww5dzaaVnz9-172" value="PK" style="shape=partialRectangle;connectable=0;fillColor=none;top=0;left=0;bottom=0;right=0;fontStyle=1;overflow=hidden;whiteSpace=wrap;html=1;labelBackgroundColor=none;strokeColor=#FF6392;fontColor=#5AA9E6;" parent="pclMln9PGww5dzaaVnz9-171" vertex="1">
          <mxGeometry width="30" height="30" as="geometry">
            <mxRectangle width="30" height="30" as="alternateBounds" />
          </mxGeometry>
        </mxCell>
        <mxCell id="pclMln9PGww5dzaaVnz9-173" value="id" style="shape=partialRectangle;connectable=0;fillColor=none;top=0;left=0;bottom=0;right=0;align=left;spacingLeft=6;fontStyle=5;overflow=hidden;whiteSpace=wrap;html=1;labelBackgroundColor=none;strokeColor=#FF6392;fontColor=#5AA9E6;" parent="pclMln9PGww5dzaaVnz9-171" vertex="1">
          <mxGeometry x="30" width="150" height="30" as="geometry">
            <mxRectangle width="150" height="30" as="alternateBounds" />
          </mxGeometry>
        </mxCell>
        <mxCell id="pclMln9PGww5dzaaVnz9-183" value="" style="shape=tableRow;horizontal=0;startSize=0;swimlaneHead=0;swimlaneBody=0;fillColor=none;collapsible=0;dropTarget=0;points=[[0,0.5],[1,0.5]];portConstraint=eastwest;top=0;left=0;right=0;bottom=1;labelBackgroundColor=none;strokeColor=#FF6392;fontColor=#5AA9E6;" parent="pclMln9PGww5dzaaVnz9-170" vertex="1">
          <mxGeometry y="60" width="180" height="30" as="geometry" />
        </mxCell>
        <mxCell id="pclMln9PGww5dzaaVnz9-184" value="FK" style="shape=partialRectangle;connectable=0;fillColor=none;top=0;left=0;bottom=0;right=0;fontStyle=1;overflow=hidden;whiteSpace=wrap;html=1;labelBackgroundColor=none;strokeColor=#FF6392;fontColor=#5AA9E6;" parent="pclMln9PGww5dzaaVnz9-183" vertex="1">
          <mxGeometry width="30" height="30" as="geometry">
            <mxRectangle width="30" height="30" as="alternateBounds" />
          </mxGeometry>
        </mxCell>
        <mxCell id="pclMln9PGww5dzaaVnz9-185" value="&lt;span style=&quot;font-weight: 400; text-align: center;&quot;&gt;users_id(FK)&lt;/span&gt;" style="shape=partialRectangle;connectable=0;fillColor=none;top=0;left=0;bottom=0;right=0;align=left;spacingLeft=6;fontStyle=5;overflow=hidden;whiteSpace=wrap;html=1;labelBackgroundColor=none;strokeColor=#FF6392;fontColor=#5AA9E6;" parent="pclMln9PGww5dzaaVnz9-183" vertex="1">
          <mxGeometry x="30" width="150" height="30" as="geometry">
            <mxRectangle width="150" height="30" as="alternateBounds" />
          </mxGeometry>
        </mxCell>
        <mxCell id="pclMln9PGww5dzaaVnz9-186" value="" style="shape=tableRow;horizontal=0;startSize=0;swimlaneHead=0;swimlaneBody=0;fillColor=none;collapsible=0;dropTarget=0;points=[[0,0.5],[1,0.5]];portConstraint=eastwest;top=0;left=0;right=0;bottom=1;labelBackgroundColor=none;strokeColor=#FF6392;fontColor=#5AA9E6;" parent="pclMln9PGww5dzaaVnz9-170" vertex="1">
          <mxGeometry y="90" width="180" height="30" as="geometry" />
        </mxCell>
        <mxCell id="pclMln9PGww5dzaaVnz9-187" value="FK" style="shape=partialRectangle;connectable=0;fillColor=none;top=0;left=0;bottom=0;right=0;fontStyle=1;overflow=hidden;whiteSpace=wrap;html=1;labelBackgroundColor=none;strokeColor=#FF6392;fontColor=#5AA9E6;" parent="pclMln9PGww5dzaaVnz9-186" vertex="1">
          <mxGeometry width="30" height="30" as="geometry">
            <mxRectangle width="30" height="30" as="alternateBounds" />
          </mxGeometry>
        </mxCell>
        <mxCell id="pclMln9PGww5dzaaVnz9-188" value="&lt;span style=&quot;font-weight: 400; text-align: center;&quot;&gt;posts_id(FK)&lt;/span&gt;" style="shape=partialRectangle;connectable=0;fillColor=none;top=0;left=0;bottom=0;right=0;align=left;spacingLeft=6;fontStyle=5;overflow=hidden;whiteSpace=wrap;html=1;labelBackgroundColor=none;strokeColor=#FF6392;fontColor=#5AA9E6;" parent="pclMln9PGww5dzaaVnz9-186" vertex="1">
          <mxGeometry x="30" width="150" height="30" as="geometry">
            <mxRectangle width="150" height="30" as="alternateBounds" />
          </mxGeometry>
        </mxCell>
        <mxCell id="pclMln9PGww5dzaaVnz9-189" value="id" style="ellipse;whiteSpace=wrap;html=1;align=center;fontStyle=4;labelBackgroundColor=none;fillColor=#FFE45E;strokeColor=#FF6392;fontColor=#5AA9E6;" parent="1" vertex="1">
          <mxGeometry x="170" y="1080" width="100" height="40" as="geometry" />
        </mxCell>
        <mxCell id="pclMln9PGww5dzaaVnz9-190" value="content" style="ellipse;whiteSpace=wrap;html=1;align=center;labelBackgroundColor=none;fillColor=#FFE45E;strokeColor=#FF6392;fontColor=#5AA9E6;" parent="1" vertex="1">
          <mxGeometry x="170" y="1129" width="100" height="40" as="geometry" />
        </mxCell>
        <mxCell id="pclMln9PGww5dzaaVnz9-191" value="users_id(FK)" style="ellipse;whiteSpace=wrap;html=1;align=center;labelBackgroundColor=none;fillColor=#FFE45E;strokeColor=#FF6392;fontColor=#5AA9E6;" parent="1" vertex="1">
          <mxGeometry x="170" y="1180" width="100" height="40" as="geometry" />
        </mxCell>
        <mxCell id="pclMln9PGww5dzaaVnz9-192" value="posts_id(FK)" style="ellipse;whiteSpace=wrap;html=1;align=center;labelBackgroundColor=none;fillColor=#FFE45E;strokeColor=#FF6392;fontColor=#5AA9E6;" parent="1" vertex="1">
          <mxGeometry x="170" y="1230" width="100" height="40" as="geometry" />
        </mxCell>
        <mxCell id="pclMln9PGww5dzaaVnz9-193" value="" style="endArrow=none;html=1;rounded=0;exitX=1;exitY=0.433;exitDx=0;exitDy=0;exitPerimeter=0;entryX=0.071;entryY=0.756;entryDx=0;entryDy=0;entryPerimeter=0;labelBackgroundColor=none;strokeColor=#FF6392;fontColor=default;" parent="1" source="pclMln9PGww5dzaaVnz9-7" target="pclMln9PGww5dzaaVnz9-189" edge="1">
          <mxGeometry relative="1" as="geometry">
            <mxPoint x="140" y="1190" as="sourcePoint" />
            <mxPoint x="300" y="1190" as="targetPoint" />
          </mxGeometry>
        </mxCell>
        <mxCell id="pclMln9PGww5dzaaVnz9-194" value="" style="endArrow=none;html=1;rounded=0;exitX=1;exitY=0.5;exitDx=0;exitDy=0;entryX=0.04;entryY=0.653;entryDx=0;entryDy=0;entryPerimeter=0;labelBackgroundColor=none;strokeColor=#FF6392;fontColor=default;" parent="1" source="pclMln9PGww5dzaaVnz9-7" target="pclMln9PGww5dzaaVnz9-190" edge="1">
          <mxGeometry relative="1" as="geometry">
            <mxPoint x="140" y="1186" as="sourcePoint" />
            <mxPoint x="187" y="1120" as="targetPoint" />
          </mxGeometry>
        </mxCell>
        <mxCell id="pclMln9PGww5dzaaVnz9-195" value="" style="endArrow=none;html=1;rounded=0;exitX=1.007;exitY=0.641;exitDx=0;exitDy=0;exitPerimeter=0;labelBackgroundColor=none;strokeColor=#FF6392;fontColor=default;" parent="1" source="pclMln9PGww5dzaaVnz9-7" target="pclMln9PGww5dzaaVnz9-191" edge="1">
          <mxGeometry relative="1" as="geometry">
            <mxPoint x="140" y="1190" as="sourcePoint" />
            <mxPoint x="184" y="1165" as="targetPoint" />
          </mxGeometry>
        </mxCell>
        <mxCell id="pclMln9PGww5dzaaVnz9-196" value="" style="endArrow=none;html=1;rounded=0;exitX=1;exitY=0.75;exitDx=0;exitDy=0;entryX=0.071;entryY=0.206;entryDx=0;entryDy=0;entryPerimeter=0;labelBackgroundColor=none;strokeColor=#FF6392;fontColor=default;" parent="1" source="pclMln9PGww5dzaaVnz9-7" target="pclMln9PGww5dzaaVnz9-192" edge="1">
          <mxGeometry relative="1" as="geometry">
            <mxPoint x="141" y="1198" as="sourcePoint" />
            <mxPoint x="182" y="1204" as="targetPoint" />
          </mxGeometry>
        </mxCell>
        <mxCell id="pclMln9PGww5dzaaVnz9-197" value="&lt;span style=&quot;font-weight: 400; text-wrap-mode: wrap;&quot;&gt;reports&lt;/span&gt;" style="shape=table;startSize=30;container=1;collapsible=1;childLayout=tableLayout;fixedRows=1;rowLines=0;fontStyle=1;align=center;resizeLast=1;html=1;labelBackgroundColor=none;fillColor=#FFE45E;strokeColor=#FF6392;fontColor=#5AA9E6;" parent="1" vertex="1">
          <mxGeometry x="827" y="70" width="180" height="150" as="geometry" />
        </mxCell>
        <mxCell id="pclMln9PGww5dzaaVnz9-198" value="" style="shape=tableRow;horizontal=0;startSize=0;swimlaneHead=0;swimlaneBody=0;fillColor=none;collapsible=0;dropTarget=0;points=[[0,0.5],[1,0.5]];portConstraint=eastwest;top=0;left=0;right=0;bottom=1;labelBackgroundColor=none;strokeColor=#FF6392;fontColor=#5AA9E6;" parent="pclMln9PGww5dzaaVnz9-197" vertex="1">
          <mxGeometry y="30" width="180" height="30" as="geometry" />
        </mxCell>
        <mxCell id="pclMln9PGww5dzaaVnz9-199" value="PK" style="shape=partialRectangle;connectable=0;fillColor=none;top=0;left=0;bottom=0;right=0;fontStyle=1;overflow=hidden;whiteSpace=wrap;html=1;labelBackgroundColor=none;strokeColor=#FF6392;fontColor=#5AA9E6;" parent="pclMln9PGww5dzaaVnz9-198" vertex="1">
          <mxGeometry width="30" height="30" as="geometry">
            <mxRectangle width="30" height="30" as="alternateBounds" />
          </mxGeometry>
        </mxCell>
        <mxCell id="pclMln9PGww5dzaaVnz9-200" value="id" style="shape=partialRectangle;connectable=0;fillColor=none;top=0;left=0;bottom=0;right=0;align=left;spacingLeft=6;fontStyle=5;overflow=hidden;whiteSpace=wrap;html=1;labelBackgroundColor=none;strokeColor=#FF6392;fontColor=#5AA9E6;" parent="pclMln9PGww5dzaaVnz9-198" vertex="1">
          <mxGeometry x="30" width="150" height="30" as="geometry">
            <mxRectangle width="150" height="30" as="alternateBounds" />
          </mxGeometry>
        </mxCell>
        <mxCell id="pclMln9PGww5dzaaVnz9-210" value="" style="shape=tableRow;horizontal=0;startSize=0;swimlaneHead=0;swimlaneBody=0;fillColor=none;collapsible=0;dropTarget=0;points=[[0,0.5],[1,0.5]];portConstraint=eastwest;top=0;left=0;right=0;bottom=1;labelBackgroundColor=none;strokeColor=#FF6392;fontColor=#5AA9E6;" parent="pclMln9PGww5dzaaVnz9-197" vertex="1">
          <mxGeometry y="60" width="180" height="30" as="geometry" />
        </mxCell>
        <mxCell id="pclMln9PGww5dzaaVnz9-211" value="FK" style="shape=partialRectangle;connectable=0;fillColor=none;top=0;left=0;bottom=0;right=0;fontStyle=1;overflow=hidden;whiteSpace=wrap;html=1;labelBackgroundColor=none;strokeColor=#FF6392;fontColor=#5AA9E6;" parent="pclMln9PGww5dzaaVnz9-210" vertex="1">
          <mxGeometry width="30" height="30" as="geometry">
            <mxRectangle width="30" height="30" as="alternateBounds" />
          </mxGeometry>
        </mxCell>
        <mxCell id="pclMln9PGww5dzaaVnz9-212" value="&lt;span style=&quot;font-weight: 400; text-align: center;&quot;&gt;users_id(FK)&lt;/span&gt;" style="shape=partialRectangle;connectable=0;fillColor=none;top=0;left=0;bottom=0;right=0;align=left;spacingLeft=6;fontStyle=5;overflow=hidden;whiteSpace=wrap;html=1;labelBackgroundColor=none;strokeColor=#FF6392;fontColor=#5AA9E6;" parent="pclMln9PGww5dzaaVnz9-210" vertex="1">
          <mxGeometry x="30" width="150" height="30" as="geometry">
            <mxRectangle width="150" height="30" as="alternateBounds" />
          </mxGeometry>
        </mxCell>
        <mxCell id="pclMln9PGww5dzaaVnz9-213" value="" style="shape=tableRow;horizontal=0;startSize=0;swimlaneHead=0;swimlaneBody=0;fillColor=none;collapsible=0;dropTarget=0;points=[[0,0.5],[1,0.5]];portConstraint=eastwest;top=0;left=0;right=0;bottom=1;labelBackgroundColor=none;strokeColor=#FF6392;fontColor=#5AA9E6;" parent="pclMln9PGww5dzaaVnz9-197" vertex="1">
          <mxGeometry y="90" width="180" height="30" as="geometry" />
        </mxCell>
        <mxCell id="pclMln9PGww5dzaaVnz9-214" value="FK" style="shape=partialRectangle;connectable=0;fillColor=none;top=0;left=0;bottom=0;right=0;fontStyle=1;overflow=hidden;whiteSpace=wrap;html=1;labelBackgroundColor=none;strokeColor=#FF6392;fontColor=#5AA9E6;" parent="pclMln9PGww5dzaaVnz9-213" vertex="1">
          <mxGeometry width="30" height="30" as="geometry">
            <mxRectangle width="30" height="30" as="alternateBounds" />
          </mxGeometry>
        </mxCell>
        <mxCell id="pclMln9PGww5dzaaVnz9-215" value="&lt;span style=&quot;font-weight: 400; text-align: center;&quot;&gt;posts_id(FK)&lt;/span&gt;" style="shape=partialRectangle;connectable=0;fillColor=none;top=0;left=0;bottom=0;right=0;align=left;spacingLeft=6;fontStyle=5;overflow=hidden;whiteSpace=wrap;html=1;labelBackgroundColor=none;strokeColor=#FF6392;fontColor=#5AA9E6;" parent="pclMln9PGww5dzaaVnz9-213" vertex="1">
          <mxGeometry x="30" width="150" height="30" as="geometry">
            <mxRectangle width="150" height="30" as="alternateBounds" />
          </mxGeometry>
        </mxCell>
        <mxCell id="pclMln9PGww5dzaaVnz9-201" value="" style="shape=tableRow;horizontal=0;startSize=0;swimlaneHead=0;swimlaneBody=0;fillColor=none;collapsible=0;dropTarget=0;points=[[0,0.5],[1,0.5]];portConstraint=eastwest;top=0;left=0;right=0;bottom=0;labelBackgroundColor=none;strokeColor=#FF6392;fontColor=#5AA9E6;" parent="pclMln9PGww5dzaaVnz9-197" vertex="1">
          <mxGeometry y="120" width="180" height="30" as="geometry" />
        </mxCell>
        <mxCell id="pclMln9PGww5dzaaVnz9-202" value="" style="shape=partialRectangle;connectable=0;fillColor=none;top=0;left=0;bottom=0;right=0;editable=1;overflow=hidden;whiteSpace=wrap;html=1;labelBackgroundColor=none;strokeColor=#FF6392;fontColor=#5AA9E6;" parent="pclMln9PGww5dzaaVnz9-201" vertex="1">
          <mxGeometry width="30" height="30" as="geometry">
            <mxRectangle width="30" height="30" as="alternateBounds" />
          </mxGeometry>
        </mxCell>
        <mxCell id="pclMln9PGww5dzaaVnz9-203" value="&lt;span style=&quot;text-align: center;&quot;&gt;content&lt;/span&gt;" style="shape=partialRectangle;connectable=0;fillColor=none;top=0;left=0;bottom=0;right=0;align=left;spacingLeft=6;overflow=hidden;whiteSpace=wrap;html=1;labelBackgroundColor=none;strokeColor=#FF6392;fontColor=#5AA9E6;" parent="pclMln9PGww5dzaaVnz9-201" vertex="1">
          <mxGeometry x="30" width="150" height="30" as="geometry">
            <mxRectangle width="150" height="30" as="alternateBounds" />
          </mxGeometry>
        </mxCell>
        <mxCell id="pclMln9PGww5dzaaVnz9-216" value="users_id(FK)" style="ellipse;whiteSpace=wrap;html=1;align=center;labelBackgroundColor=none;fillColor=#FFE45E;strokeColor=#FF6392;fontColor=#5AA9E6;" parent="1" vertex="1">
          <mxGeometry x="167" y="1340" width="100" height="40" as="geometry" />
        </mxCell>
        <mxCell id="pclMln9PGww5dzaaVnz9-217" value="posts_id(FK)" style="ellipse;whiteSpace=wrap;html=1;align=center;labelBackgroundColor=none;fillColor=#FFE45E;strokeColor=#FF6392;fontColor=#5AA9E6;" parent="1" vertex="1">
          <mxGeometry x="167" y="1390" width="100" height="40" as="geometry" />
        </mxCell>
        <mxCell id="pclMln9PGww5dzaaVnz9-218" value="id" style="ellipse;whiteSpace=wrap;html=1;align=center;fontStyle=4;labelBackgroundColor=none;fillColor=#FFE45E;strokeColor=#FF6392;fontColor=#5AA9E6;" parent="1" vertex="1">
          <mxGeometry x="167" y="1290" width="100" height="40" as="geometry" />
        </mxCell>
        <mxCell id="pclMln9PGww5dzaaVnz9-219" value="" style="endArrow=none;html=1;rounded=0;exitX=1.005;exitY=0.348;exitDx=0;exitDy=0;exitPerimeter=0;labelBackgroundColor=none;strokeColor=#FF6392;fontColor=default;" parent="1" source="pclMln9PGww5dzaaVnz9-8" target="pclMln9PGww5dzaaVnz9-218" edge="1">
          <mxGeometry relative="1" as="geometry">
            <mxPoint x="130" y="1360" as="sourcePoint" />
            <mxPoint x="290" y="1360" as="targetPoint" />
          </mxGeometry>
        </mxCell>
        <mxCell id="pclMln9PGww5dzaaVnz9-220" value="" style="endArrow=none;html=1;rounded=0;exitX=0.997;exitY=0.471;exitDx=0;exitDy=0;exitPerimeter=0;labelBackgroundColor=none;strokeColor=#FF6392;fontColor=default;" parent="1" source="pclMln9PGww5dzaaVnz9-8" target="pclMln9PGww5dzaaVnz9-216" edge="1">
          <mxGeometry relative="1" as="geometry">
            <mxPoint x="151" y="1361" as="sourcePoint" />
            <mxPoint x="197" y="1336" as="targetPoint" />
          </mxGeometry>
        </mxCell>
        <mxCell id="pclMln9PGww5dzaaVnz9-221" value="" style="endArrow=none;html=1;rounded=0;exitX=0.996;exitY=0.692;exitDx=0;exitDy=0;exitPerimeter=0;entryX=0.048;entryY=0.336;entryDx=0;entryDy=0;entryPerimeter=0;labelBackgroundColor=none;strokeColor=#FF6392;fontColor=default;" parent="1" source="pclMln9PGww5dzaaVnz9-8" target="pclMln9PGww5dzaaVnz9-217" edge="1">
          <mxGeometry relative="1" as="geometry">
            <mxPoint x="147" y="1369" as="sourcePoint" />
            <mxPoint x="177" y="1370" as="targetPoint" />
          </mxGeometry>
        </mxCell>
        <mxCell id="pclMln9PGww5dzaaVnz9-238" value="&lt;span style=&quot;font-weight: 400; text-wrap-mode: wrap;&quot;&gt;followers&lt;/span&gt;" style="shape=table;startSize=30;container=1;collapsible=1;childLayout=tableLayout;fixedRows=1;rowLines=0;fontStyle=1;align=center;resizeLast=1;html=1;labelBackgroundColor=none;fillColor=#FFE45E;strokeColor=#FF6392;fontColor=#5AA9E6;" parent="1" vertex="1">
          <mxGeometry x="827" y="565" width="180" height="120" as="geometry" />
        </mxCell>
        <mxCell id="pclMln9PGww5dzaaVnz9-239" value="" style="shape=tableRow;horizontal=0;startSize=0;swimlaneHead=0;swimlaneBody=0;fillColor=none;collapsible=0;dropTarget=0;points=[[0,0.5],[1,0.5]];portConstraint=eastwest;top=0;left=0;right=0;bottom=1;labelBackgroundColor=none;strokeColor=#FF6392;fontColor=#5AA9E6;" parent="pclMln9PGww5dzaaVnz9-238" vertex="1">
          <mxGeometry y="30" width="180" height="30" as="geometry" />
        </mxCell>
        <mxCell id="pclMln9PGww5dzaaVnz9-240" value="PK" style="shape=partialRectangle;connectable=0;fillColor=none;top=0;left=0;bottom=0;right=0;fontStyle=1;overflow=hidden;whiteSpace=wrap;html=1;labelBackgroundColor=none;strokeColor=#FF6392;fontColor=#5AA9E6;" parent="pclMln9PGww5dzaaVnz9-239" vertex="1">
          <mxGeometry width="30" height="30" as="geometry">
            <mxRectangle width="30" height="30" as="alternateBounds" />
          </mxGeometry>
        </mxCell>
        <mxCell id="pclMln9PGww5dzaaVnz9-241" value="id" style="shape=partialRectangle;connectable=0;fillColor=none;top=0;left=0;bottom=0;right=0;align=left;spacingLeft=6;fontStyle=5;overflow=hidden;whiteSpace=wrap;html=1;labelBackgroundColor=none;strokeColor=#FF6392;fontColor=#5AA9E6;" parent="pclMln9PGww5dzaaVnz9-239" vertex="1">
          <mxGeometry x="30" width="150" height="30" as="geometry">
            <mxRectangle width="150" height="30" as="alternateBounds" />
          </mxGeometry>
        </mxCell>
        <mxCell id="pclMln9PGww5dzaaVnz9-251" value="" style="shape=tableRow;horizontal=0;startSize=0;swimlaneHead=0;swimlaneBody=0;fillColor=none;collapsible=0;dropTarget=0;points=[[0,0.5],[1,0.5]];portConstraint=eastwest;top=0;left=0;right=0;bottom=1;labelBackgroundColor=none;strokeColor=#FF6392;fontColor=#5AA9E6;" parent="pclMln9PGww5dzaaVnz9-238" vertex="1">
          <mxGeometry y="60" width="180" height="30" as="geometry" />
        </mxCell>
        <mxCell id="pclMln9PGww5dzaaVnz9-252" value="FK" style="shape=partialRectangle;connectable=0;fillColor=none;top=0;left=0;bottom=0;right=0;fontStyle=1;overflow=hidden;whiteSpace=wrap;html=1;labelBackgroundColor=none;strokeColor=#FF6392;fontColor=#5AA9E6;" parent="pclMln9PGww5dzaaVnz9-251" vertex="1">
          <mxGeometry width="30" height="30" as="geometry">
            <mxRectangle width="30" height="30" as="alternateBounds" />
          </mxGeometry>
        </mxCell>
        <mxCell id="pclMln9PGww5dzaaVnz9-253" value="&lt;span style=&quot;font-weight: 400; text-align: center;&quot;&gt;users_id(FK)&lt;/span&gt;" style="shape=partialRectangle;connectable=0;fillColor=none;top=0;left=0;bottom=0;right=0;align=left;spacingLeft=6;fontStyle=5;overflow=hidden;whiteSpace=wrap;html=1;labelBackgroundColor=none;strokeColor=#FF6392;fontColor=#5AA9E6;" parent="pclMln9PGww5dzaaVnz9-251" vertex="1">
          <mxGeometry x="30" width="150" height="30" as="geometry">
            <mxRectangle width="150" height="30" as="alternateBounds" />
          </mxGeometry>
        </mxCell>
        <mxCell id="pclMln9PGww5dzaaVnz9-254" value="" style="shape=tableRow;horizontal=0;startSize=0;swimlaneHead=0;swimlaneBody=0;fillColor=none;collapsible=0;dropTarget=0;points=[[0,0.5],[1,0.5]];portConstraint=eastwest;top=0;left=0;right=0;bottom=1;labelBackgroundColor=none;strokeColor=#FF6392;fontColor=#5AA9E6;" parent="pclMln9PGww5dzaaVnz9-238" vertex="1">
          <mxGeometry y="90" width="180" height="30" as="geometry" />
        </mxCell>
        <mxCell id="pclMln9PGww5dzaaVnz9-255" value="FK" style="shape=partialRectangle;connectable=0;fillColor=none;top=0;left=0;bottom=0;right=0;fontStyle=1;overflow=hidden;whiteSpace=wrap;html=1;labelBackgroundColor=none;strokeColor=#FF6392;fontColor=#5AA9E6;" parent="pclMln9PGww5dzaaVnz9-254" vertex="1">
          <mxGeometry width="30" height="30" as="geometry">
            <mxRectangle width="30" height="30" as="alternateBounds" />
          </mxGeometry>
        </mxCell>
        <mxCell id="pclMln9PGww5dzaaVnz9-256" value="&lt;span style=&quot;font-weight: 400; text-align: center;&quot;&gt;posts_id(FK)&lt;/span&gt;" style="shape=partialRectangle;connectable=0;fillColor=none;top=0;left=0;bottom=0;right=0;align=left;spacingLeft=6;fontStyle=5;overflow=hidden;whiteSpace=wrap;html=1;labelBackgroundColor=none;strokeColor=#FF6392;fontColor=#5AA9E6;" parent="pclMln9PGww5dzaaVnz9-254" vertex="1">
          <mxGeometry x="30" width="150" height="30" as="geometry">
            <mxRectangle width="150" height="30" as="alternateBounds" />
          </mxGeometry>
        </mxCell>
        <mxCell id="pclMln9PGww5dzaaVnz9-257" value="posts_hashtags" style="whiteSpace=wrap;html=1;align=center;labelBackgroundColor=none;fillColor=#FFE45E;strokeColor=#FF6392;fontColor=#5AA9E6;" parent="1" vertex="1">
          <mxGeometry x="30" y="1530" width="100" height="40" as="geometry" />
        </mxCell>
        <mxCell id="pclMln9PGww5dzaaVnz9-258" value="&lt;span style=&quot;font-weight: 400; text-wrap-mode: wrap;&quot;&gt;posts_hashtags&lt;/span&gt;" style="shape=table;startSize=30;container=1;collapsible=1;childLayout=tableLayout;fixedRows=1;rowLines=0;fontStyle=1;align=center;resizeLast=1;html=1;labelBackgroundColor=none;fillColor=#FFE45E;strokeColor=#FF6392;fontColor=#5AA9E6;" parent="1" vertex="1">
          <mxGeometry x="1120" y="695" width="180" height="120" as="geometry" />
        </mxCell>
        <mxCell id="pclMln9PGww5dzaaVnz9-259" value="" style="shape=tableRow;horizontal=0;startSize=0;swimlaneHead=0;swimlaneBody=0;fillColor=none;collapsible=0;dropTarget=0;points=[[0,0.5],[1,0.5]];portConstraint=eastwest;top=0;left=0;right=0;bottom=1;labelBackgroundColor=none;strokeColor=#FF6392;fontColor=#5AA9E6;" parent="pclMln9PGww5dzaaVnz9-258" vertex="1">
          <mxGeometry y="30" width="180" height="30" as="geometry" />
        </mxCell>
        <mxCell id="pclMln9PGww5dzaaVnz9-260" value="PK" style="shape=partialRectangle;connectable=0;fillColor=none;top=0;left=0;bottom=0;right=0;fontStyle=1;overflow=hidden;whiteSpace=wrap;html=1;labelBackgroundColor=none;strokeColor=#FF6392;fontColor=#5AA9E6;" parent="pclMln9PGww5dzaaVnz9-259" vertex="1">
          <mxGeometry width="30" height="30" as="geometry">
            <mxRectangle width="30" height="30" as="alternateBounds" />
          </mxGeometry>
        </mxCell>
        <mxCell id="pclMln9PGww5dzaaVnz9-261" value="id" style="shape=partialRectangle;connectable=0;fillColor=none;top=0;left=0;bottom=0;right=0;align=left;spacingLeft=6;fontStyle=5;overflow=hidden;whiteSpace=wrap;html=1;labelBackgroundColor=none;strokeColor=#FF6392;fontColor=#5AA9E6;" parent="pclMln9PGww5dzaaVnz9-259" vertex="1">
          <mxGeometry x="30" width="150" height="30" as="geometry">
            <mxRectangle width="150" height="30" as="alternateBounds" />
          </mxGeometry>
        </mxCell>
        <mxCell id="pclMln9PGww5dzaaVnz9-271" value="" style="shape=tableRow;horizontal=0;startSize=0;swimlaneHead=0;swimlaneBody=0;fillColor=none;collapsible=0;dropTarget=0;points=[[0,0.5],[1,0.5]];portConstraint=eastwest;top=0;left=0;right=0;bottom=1;labelBackgroundColor=none;strokeColor=#FF6392;fontColor=#5AA9E6;" parent="pclMln9PGww5dzaaVnz9-258" vertex="1">
          <mxGeometry y="60" width="180" height="30" as="geometry" />
        </mxCell>
        <mxCell id="pclMln9PGww5dzaaVnz9-272" value="FK" style="shape=partialRectangle;connectable=0;fillColor=none;top=0;left=0;bottom=0;right=0;fontStyle=1;overflow=hidden;whiteSpace=wrap;html=1;labelBackgroundColor=none;strokeColor=#FF6392;fontColor=#5AA9E6;" parent="pclMln9PGww5dzaaVnz9-271" vertex="1">
          <mxGeometry width="30" height="30" as="geometry">
            <mxRectangle width="30" height="30" as="alternateBounds" />
          </mxGeometry>
        </mxCell>
        <mxCell id="pclMln9PGww5dzaaVnz9-273" value="&lt;span style=&quot;font-weight: 400; text-align: center;&quot;&gt;users_id&lt;/span&gt;" style="shape=partialRectangle;connectable=0;fillColor=none;top=0;left=0;bottom=0;right=0;align=left;spacingLeft=6;fontStyle=5;overflow=hidden;whiteSpace=wrap;html=1;labelBackgroundColor=none;strokeColor=#FF6392;fontColor=#5AA9E6;" parent="pclMln9PGww5dzaaVnz9-271" vertex="1">
          <mxGeometry x="30" width="150" height="30" as="geometry">
            <mxRectangle width="150" height="30" as="alternateBounds" />
          </mxGeometry>
        </mxCell>
        <mxCell id="pclMln9PGww5dzaaVnz9-274" value="" style="shape=tableRow;horizontal=0;startSize=0;swimlaneHead=0;swimlaneBody=0;fillColor=none;collapsible=0;dropTarget=0;points=[[0,0.5],[1,0.5]];portConstraint=eastwest;top=0;left=0;right=0;bottom=1;labelBackgroundColor=none;strokeColor=#FF6392;fontColor=#5AA9E6;" parent="pclMln9PGww5dzaaVnz9-258" vertex="1">
          <mxGeometry y="90" width="180" height="30" as="geometry" />
        </mxCell>
        <mxCell id="pclMln9PGww5dzaaVnz9-275" value="FK" style="shape=partialRectangle;connectable=0;fillColor=none;top=0;left=0;bottom=0;right=0;fontStyle=1;overflow=hidden;whiteSpace=wrap;html=1;labelBackgroundColor=none;strokeColor=#FF6392;fontColor=#5AA9E6;" parent="pclMln9PGww5dzaaVnz9-274" vertex="1">
          <mxGeometry width="30" height="30" as="geometry">
            <mxRectangle width="30" height="30" as="alternateBounds" />
          </mxGeometry>
        </mxCell>
        <mxCell id="pclMln9PGww5dzaaVnz9-276" value="hashtags_id" style="shape=partialRectangle;connectable=0;fillColor=none;top=0;left=0;bottom=0;right=0;align=left;spacingLeft=6;fontStyle=5;overflow=hidden;whiteSpace=wrap;html=1;labelBackgroundColor=none;strokeColor=#FF6392;fontColor=#5AA9E6;" parent="pclMln9PGww5dzaaVnz9-274" vertex="1">
          <mxGeometry x="30" width="150" height="30" as="geometry">
            <mxRectangle width="150" height="30" as="alternateBounds" />
          </mxGeometry>
        </mxCell>
        <mxCell id="pclMln9PGww5dzaaVnz9-277" value="users_id(FK)" style="ellipse;whiteSpace=wrap;html=1;align=center;labelBackgroundColor=none;fillColor=#FFE45E;strokeColor=#FF6392;fontColor=#5AA9E6;" parent="1" vertex="1">
          <mxGeometry x="160" y="1530" width="100" height="40" as="geometry" />
        </mxCell>
        <mxCell id="pclMln9PGww5dzaaVnz9-278" value="&lt;span style=&quot;text-align: left; text-decoration-line: underline;&quot;&gt;hashtags_id(FK)&lt;/span&gt;" style="ellipse;whiteSpace=wrap;html=1;align=center;fontStyle=0;labelBackgroundColor=none;fillColor=#FFE45E;strokeColor=#FF6392;fontColor=#5AA9E6;" parent="1" vertex="1">
          <mxGeometry x="160" y="1580" width="100" height="40" as="geometry" />
        </mxCell>
        <mxCell id="pclMln9PGww5dzaaVnz9-279" value="id" style="ellipse;whiteSpace=wrap;html=1;align=center;fontStyle=4;labelBackgroundColor=none;fillColor=#FFE45E;strokeColor=#FF6392;fontColor=#5AA9E6;" parent="1" vertex="1">
          <mxGeometry x="160" y="1480" width="100" height="40" as="geometry" />
        </mxCell>
        <mxCell id="pclMln9PGww5dzaaVnz9-280" value="" style="endArrow=none;html=1;rounded=0;exitX=1;exitY=0.5;exitDx=0;exitDy=0;entryX=0.093;entryY=0.821;entryDx=0;entryDy=0;entryPerimeter=0;labelBackgroundColor=none;strokeColor=#FF6392;fontColor=default;" parent="1" source="pclMln9PGww5dzaaVnz9-257" target="pclMln9PGww5dzaaVnz9-279" edge="1">
          <mxGeometry relative="1" as="geometry">
            <mxPoint x="150" y="1620" as="sourcePoint" />
            <mxPoint x="310" y="1620" as="targetPoint" />
          </mxGeometry>
        </mxCell>
        <mxCell id="pclMln9PGww5dzaaVnz9-281" value="" style="endArrow=none;html=1;rounded=0;exitX=1;exitY=0.75;exitDx=0;exitDy=0;labelBackgroundColor=none;strokeColor=#FF6392;fontColor=default;" parent="1" source="pclMln9PGww5dzaaVnz9-257" target="pclMln9PGww5dzaaVnz9-277" edge="1">
          <mxGeometry relative="1" as="geometry">
            <mxPoint x="140" y="1560" as="sourcePoint" />
            <mxPoint x="196" y="1525" as="targetPoint" />
          </mxGeometry>
        </mxCell>
        <mxCell id="pclMln9PGww5dzaaVnz9-282" value="" style="endArrow=none;html=1;rounded=0;exitX=1.01;exitY=0.845;exitDx=0;exitDy=0;exitPerimeter=0;entryX=0.1;entryY=0.25;entryDx=0;entryDy=0;entryPerimeter=0;labelBackgroundColor=none;strokeColor=#FF6392;fontColor=default;" parent="1" source="pclMln9PGww5dzaaVnz9-257" target="pclMln9PGww5dzaaVnz9-278" edge="1">
          <mxGeometry relative="1" as="geometry">
            <mxPoint x="140" y="1570" as="sourcePoint" />
            <mxPoint x="172" y="1566" as="targetPoint" />
          </mxGeometry>
        </mxCell>
        <mxCell id="z7lsowHdEMNv3hlPoUAW-3" value="" style="edgeStyle=entityRelationEdgeStyle;fontSize=12;html=1;endArrow=ERzeroToMany;startArrow=ERmandOne;rounded=0;entryX=1;entryY=0.5;entryDx=0;entryDy=0;exitX=-0.004;exitY=0.105;exitDx=0;exitDy=0;exitPerimeter=0;labelBackgroundColor=none;strokeColor=#FF6392;fontColor=default;" edge="1" parent="1" source="pclMln9PGww5dzaaVnz9-20" target="pclMln9PGww5dzaaVnz9-140">
          <mxGeometry width="100" height="100" relative="1" as="geometry">
            <mxPoint x="1310" y="89" as="sourcePoint" />
            <mxPoint x="1630" y="110" as="targetPoint" />
            <Array as="points">
              <mxPoint x="1570" y="160" />
              <mxPoint x="1600" y="150" />
              <mxPoint x="1560" y="180" />
            </Array>
          </mxGeometry>
        </mxCell>
        <mxCell id="z7lsowHdEMNv3hlPoUAW-4" value="" style="edgeStyle=entityRelationEdgeStyle;fontSize=12;html=1;endArrow=ERzeroToOne;startArrow=ERmandOne;rounded=0;strokeColor=#FF6392;fontColor=#5AA9E6;fillColor=#FFE45E;entryX=0;entryY=0.25;entryDx=0;entryDy=0;" edge="1" parent="1" source="pclMln9PGww5dzaaVnz9-70" target="pclMln9PGww5dzaaVnz9-90">
          <mxGeometry width="100" height="100" relative="1" as="geometry">
            <mxPoint x="1140" y="480" as="sourcePoint" />
            <mxPoint x="1240" y="380" as="targetPoint" />
          </mxGeometry>
        </mxCell>
      </root>
    </mxGraphModel>
  </diagram>
</mxfile>
